{
	"patcher" : 	{
		"fileversion" : 1,
		"rect" : [ 238.0, 149.0, 1014.0, 794.0 ],
		"bglocked" : 0,
		"defrect" : [ 238.0, 149.0, 1014.0, 794.0 ],
		"openrect" : [ 0.0, 0.0, 0.0, 0.0 ],
		"openinpresentation" : 0,
		"default_fontsize" : 10.0,
		"default_fontface" : 0,
		"default_fontname" : "Arial",
		"gridonopen" : 0,
		"gridsize" : [ 15.0, 15.0 ],
		"gridsnaponopen" : 0,
		"toolbarvisible" : 1,
		"boxanimatetime" : 200,
		"imprint" : 0,
		"enablehscroll" : 1,
		"enablevscroll" : 1,
		"devicewidth" : 0.0,
		"boxes" : [ 			{
				"box" : 				{
					"maxclass" : "newobj",
					"text" : "del 0",
					"numinlets" : 2,
					"fontsize" : 10.0,
					"numoutlets" : 1,
					"outlettype" : [ "bang" ],
					"patching_rect" : [ 549.0, 598.0, 32.5, 18.0 ],
					"id" : "obj-6",
					"fontname" : "Arial"
				}

			}
, 			{
				"box" : 				{
					"maxclass" : "button",
					"numinlets" : 1,
					"numoutlets" : 1,
					"outlettype" : [ "bang" ],
					"patching_rect" : [ 533.0, 14.0, 20.0, 20.0 ],
					"id" : "obj-14"
				}

			}
, 			{
				"box" : 				{
					"maxclass" : "newobj",
					"text" : "t b 1 b b",
					"numinlets" : 1,
					"fontsize" : 10.0,
					"numoutlets" : 4,
					"outlettype" : [ "bang", "int", "bang", "bang" ],
					"patching_rect" : [ 530.0, 44.0, 59.5, 18.0 ],
					"id" : "obj-5",
					"fontname" : "Arial"
				}

			}
, 			{
				"box" : 				{
					"maxclass" : "newobj",
					"text" : "noteout",
					"numinlets" : 3,
					"fontsize" : 10.0,
					"numoutlets" : 0,
					"patching_rect" : [ 611.0, 619.0, 91.0, 18.0 ],
					"id" : "obj-83",
					"fontname" : "Arial"
				}

			}
, 			{
				"box" : 				{
					"maxclass" : "message",
					"text" : "zlclear",
					"numinlets" : 2,
					"fontsize" : 10.0,
					"numoutlets" : 1,
					"outlettype" : [ "" ],
					"patching_rect" : [ 178.0, 309.0, 39.0, 16.0 ],
					"id" : "obj-82",
					"fontname" : "Arial"
				}

			}
, 			{
				"box" : 				{
					"maxclass" : "newobj",
					"text" : "zl sort",
					"numinlets" : 2,
					"fontsize" : 10.0,
					"numoutlets" : 2,
					"outlettype" : [ "", "" ],
					"patching_rect" : [ 125.0, 403.0, 37.0, 18.0 ],
					"id" : "obj-80",
					"fontname" : "Arial"
				}

			}
, 			{
				"box" : 				{
					"maxclass" : "message",
					"text" : "1 2 3 5 6 8 9 10 11 12 13 15",
					"linecount" : 3,
					"numinlets" : 2,
					"fontsize" : 10.0,
					"numoutlets" : 1,
					"outlettype" : [ "" ],
					"patching_rect" : [ 91.0, 438.0, 67.0, 39.0 ],
					"id" : "obj-79",
					"fontname" : "Arial"
				}

			}
, 			{
				"box" : 				{
					"maxclass" : "newobj",
					"text" : "zl join",
					"numinlets" : 2,
					"fontsize" : 10.0,
					"numoutlets" : 2,
					"outlettype" : [ "", "" ],
					"patching_rect" : [ 125.0, 340.0, 36.0, 18.0 ],
					"id" : "obj-77",
					"fontname" : "Arial"
				}

			}
, 			{
				"box" : 				{
					"maxclass" : "newobj",
					"text" : "zl thin",
					"numinlets" : 2,
					"fontsize" : 10.0,
					"numoutlets" : 2,
					"outlettype" : [ "", "" ],
					"patching_rect" : [ 125.0, 366.0, 37.0, 18.0 ],
					"id" : "obj-48",
					"fontname" : "Arial"
				}

			}
, 			{
				"box" : 				{
					"maxclass" : "number",
					"numinlets" : 1,
					"fontsize" : 10.0,
					"numoutlets" : 2,
					"outlettype" : [ "int", "bang" ],
					"patching_rect" : [ 467.0, 86.0, 50.0, 18.0 ],
					"id" : "obj-38",
					"fontname" : "Arial"
				}

			}
, 			{
				"box" : 				{
					"maxclass" : "comment",
					"text" : "play",
					"numinlets" : 1,
					"fontsize" : 10.0,
					"numoutlets" : 0,
					"patching_rect" : [ 383.0, 493.0, 29.0, 18.0 ],
					"id" : "obj-74",
					"fontname" : "Arial"
				}

			}
, 			{
				"box" : 				{
					"maxclass" : "newobj",
					"text" : "+ 1",
					"numinlets" : 2,
					"fontsize" : 10.0,
					"numoutlets" : 1,
					"outlettype" : [ "int" ],
					"patching_rect" : [ 685.0, 528.0, 32.5, 18.0 ],
					"id" : "obj-72",
					"fontname" : "Arial"
				}

			}
, 			{
				"box" : 				{
					"maxclass" : "comment",
					"text" : "duration range",
					"numinlets" : 1,
					"fontsize" : 10.0,
					"numoutlets" : 0,
					"patching_rect" : [ 888.0, 169.0, 75.0, 18.0 ],
					"id" : "obj-70",
					"fontname" : "Arial"
				}

			}
, 			{
				"box" : 				{
					"maxclass" : "comment",
					"text" : "reset",
					"numinlets" : 1,
					"fontsize" : 10.0,
					"numoutlets" : 0,
					"patching_rect" : [ 764.0, 102.0, 33.0, 18.0 ],
					"id" : "obj-68",
					"fontname" : "Arial"
				}

			}
, 			{
				"box" : 				{
					"maxclass" : "comment",
					"text" : "master quantile (ms)",
					"numinlets" : 1,
					"fontsize" : 10.0,
					"numoutlets" : 0,
					"patching_rect" : [ 882.0, 108.0, 102.0, 18.0 ],
					"id" : "obj-58",
					"fontname" : "Arial"
				}

			}
, 			{
				"box" : 				{
					"maxclass" : "newobj",
					"text" : "loadmess 10",
					"numinlets" : 1,
					"fontsize" : 10.0,
					"numoutlets" : 1,
					"outlettype" : [ "" ],
					"patching_rect" : [ 832.0, 144.0, 67.0, 18.0 ],
					"id" : "obj-52",
					"fontname" : "Arial"
				}

			}
, 			{
				"box" : 				{
					"maxclass" : "number",
					"numinlets" : 1,
					"fontsize" : 10.0,
					"numoutlets" : 2,
					"outlettype" : [ "int", "bang" ],
					"patching_rect" : [ 832.0, 169.0, 50.0, 18.0 ],
					"id" : "obj-53",
					"fontname" : "Arial"
				}

			}
, 			{
				"box" : 				{
					"maxclass" : "message",
					"text" : "dump",
					"numinlets" : 2,
					"fontsize" : 10.0,
					"numoutlets" : 1,
					"outlettype" : [ "" ],
					"patching_rect" : [ 664.0, 340.0, 36.0, 16.0 ],
					"id" : "obj-41",
					"fontname" : "Arial"
				}

			}
, 			{
				"box" : 				{
					"maxclass" : "newobj",
					"text" : "loadmess 125",
					"numinlets" : 1,
					"fontsize" : 10.0,
					"numoutlets" : 1,
					"outlettype" : [ "" ],
					"patching_rect" : [ 821.0, 83.0, 73.0, 18.0 ],
					"id" : "obj-28",
					"fontname" : "Arial"
				}

			}
, 			{
				"box" : 				{
					"maxclass" : "number",
					"numinlets" : 1,
					"fontsize" : 10.0,
					"numoutlets" : 2,
					"outlettype" : [ "int", "bang" ],
					"patching_rect" : [ 821.0, 108.0, 50.0, 18.0 ],
					"id" : "obj-22",
					"fontname" : "Arial"
				}

			}
, 			{
				"box" : 				{
					"maxclass" : "number",
					"numinlets" : 1,
					"fontsize" : 10.0,
					"numoutlets" : 2,
					"outlettype" : [ "int", "bang" ],
					"patching_rect" : [ 706.0, 340.0, 50.0, 18.0 ],
					"id" : "obj-71",
					"fontname" : "Arial"
				}

			}
, 			{
				"box" : 				{
					"maxclass" : "message",
					"text" : "reset $1",
					"numinlets" : 2,
					"fontsize" : 10.0,
					"numoutlets" : 1,
					"outlettype" : [ "" ],
					"patching_rect" : [ 759.0, 365.0, 47.0, 16.0 ],
					"id" : "obj-66",
					"fontname" : "Arial"
				}

			}
, 			{
				"box" : 				{
					"maxclass" : "button",
					"numinlets" : 1,
					"numoutlets" : 1,
					"outlettype" : [ "bang" ],
					"patching_rect" : [ 621.0, 417.0, 20.0, 20.0 ],
					"id" : "obj-61"
				}

			}
, 			{
				"box" : 				{
					"maxclass" : "button",
					"numinlets" : 1,
					"numoutlets" : 1,
					"outlettype" : [ "bang" ],
					"patching_rect" : [ 685.0, 478.0, 20.0, 20.0 ],
					"id" : "obj-39"
				}

			}
, 			{
				"box" : 				{
					"maxclass" : "newobj",
					"text" : "* 125",
					"numinlets" : 2,
					"fontsize" : 10.0,
					"numoutlets" : 1,
					"outlettype" : [ "int" ],
					"patching_rect" : [ 685.0, 558.0, 34.0, 18.0 ],
					"id" : "obj-35",
					"fontname" : "Arial"
				}

			}
, 			{
				"box" : 				{
					"maxclass" : "newobj",
					"text" : "random 10",
					"numinlets" : 2,
					"fontsize" : 10.0,
					"numoutlets" : 1,
					"outlettype" : [ "int" ],
					"patching_rect" : [ 685.0, 504.0, 58.0, 18.0 ],
					"id" : "obj-32",
					"fontname" : "Arial"
				}

			}
, 			{
				"box" : 				{
					"maxclass" : "newobj",
					"text" : "stripnote",
					"numinlets" : 2,
					"fontsize" : 10.0,
					"numoutlets" : 2,
					"outlettype" : [ "int", "int" ],
					"patching_rect" : [ 566.0, 155.0, 49.0, 18.0 ],
					"id" : "obj-30",
					"fontname" : "Arial"
				}

			}
, 			{
				"box" : 				{
					"maxclass" : "newobj",
					"text" : "/ 125",
					"numinlets" : 2,
					"fontsize" : 10.0,
					"numoutlets" : 1,
					"outlettype" : [ "int" ],
					"patching_rect" : [ 453.0, 268.0, 33.0, 18.0 ],
					"id" : "obj-26",
					"fontname" : "Arial"
				}

			}
, 			{
				"box" : 				{
					"maxclass" : "button",
					"numinlets" : 1,
					"numoutlets" : 1,
					"outlettype" : [ "bang" ],
					"patching_rect" : [ 721.0, 90.0, 42.0, 42.0 ],
					"id" : "obj-25"
				}

			}
, 			{
				"box" : 				{
					"maxclass" : "message",
					"text" : "set 0",
					"numinlets" : 2,
					"fontsize" : 10.0,
					"numoutlets" : 1,
					"outlettype" : [ "" ],
					"patching_rect" : [ 591.0, 223.0, 32.5, 16.0 ],
					"id" : "obj-21",
					"fontname" : "Arial"
				}

			}
, 			{
				"box" : 				{
					"maxclass" : "newobj",
					"text" : "% 128",
					"numinlets" : 2,
					"fontsize" : 10.0,
					"numoutlets" : 1,
					"outlettype" : [ "int" ],
					"patching_rect" : [ 576.0, 417.0, 39.0, 18.0 ],
					"id" : "obj-11",
					"fontname" : "Arial"
				}

			}
, 			{
				"box" : 				{
					"maxclass" : "newobj",
					"text" : "t i i",
					"numinlets" : 1,
					"fontsize" : 10.0,
					"numoutlets" : 2,
					"outlettype" : [ "int", "int" ],
					"patching_rect" : [ 552.0, 223.0, 32.5, 18.0 ],
					"id" : "obj-4",
					"fontname" : "Arial"
				}

			}
, 			{
				"box" : 				{
					"maxclass" : "newobj",
					"text" : "+",
					"numinlets" : 2,
					"fontsize" : 10.0,
					"numoutlets" : 1,
					"outlettype" : [ "int" ],
					"patching_rect" : [ 552.0, 293.0, 32.5, 18.0 ],
					"id" : "obj-3",
					"fontname" : "Arial"
				}

			}
, 			{
				"box" : 				{
					"maxclass" : "newobj",
					"text" : "<< 7",
					"numinlets" : 2,
					"fontsize" : 10.0,
					"numoutlets" : 1,
					"outlettype" : [ "int" ],
					"patching_rect" : [ 566.0, 269.0, 32.5, 18.0 ],
					"id" : "obj-2",
					"fontname" : "Arial"
				}

			}
, 			{
				"box" : 				{
					"maxclass" : "newobj",
					"text" : "bucket",
					"numinlets" : 1,
					"fontsize" : 10.0,
					"numoutlets" : 1,
					"outlettype" : [ "" ],
					"patching_rect" : [ 566.0, 246.0, 40.0, 18.0 ],
					"id" : "obj-1",
					"fontname" : "Arial"
				}

			}
, 			{
				"box" : 				{
					"maxclass" : "newobj",
					"text" : "gate",
					"numinlets" : 2,
					"fontsize" : 10.0,
					"numoutlets" : 1,
					"outlettype" : [ "" ],
					"patching_rect" : [ 552.0, 198.0, 32.5, 18.0 ],
					"id" : "obj-57",
					"fontname" : "Arial"
				}

			}
, 			{
				"box" : 				{
					"maxclass" : "newobj",
					"text" : "gate",
					"numinlets" : 2,
					"fontsize" : 10.0,
					"numoutlets" : 1,
					"outlettype" : [ "" ],
					"patching_rect" : [ 453.0, 241.0, 32.5, 18.0 ],
					"id" : "obj-56",
					"fontname" : "Arial"
				}

			}
, 			{
				"box" : 				{
					"maxclass" : "newobj",
					"text" : "== 2",
					"numinlets" : 2,
					"fontsize" : 10.0,
					"numoutlets" : 1,
					"outlettype" : [ "int" ],
					"patching_rect" : [ 453.0, 155.0, 32.5, 18.0 ],
					"id" : "obj-55",
					"fontname" : "Arial"
				}

			}
, 			{
				"box" : 				{
					"maxclass" : "newobj",
					"text" : "i",
					"numinlets" : 2,
					"fontsize" : 10.0,
					"numoutlets" : 1,
					"outlettype" : [ "int" ],
					"patching_rect" : [ 576.0, 527.0, 32.5, 18.0 ],
					"id" : "obj-51",
					"fontname" : "Arial"
				}

			}
, 			{
				"box" : 				{
					"maxclass" : "newobj",
					"text" : "t b i",
					"numinlets" : 1,
					"fontsize" : 10.0,
					"numoutlets" : 2,
					"outlettype" : [ "bang", "int" ],
					"patching_rect" : [ 576.0, 497.0, 32.5, 18.0 ],
					"id" : "obj-50",
					"fontname" : "Arial"
				}

			}
, 			{
				"box" : 				{
					"maxclass" : "newobj",
					"text" : "sel 0",
					"numinlets" : 2,
					"fontsize" : 10.0,
					"numoutlets" : 2,
					"outlettype" : [ "bang", "" ],
					"patching_rect" : [ 576.0, 558.0, 32.5, 18.0 ],
					"id" : "obj-47",
					"fontname" : "Arial"
				}

			}
, 			{
				"box" : 				{
					"maxclass" : "newobj",
					"text" : "gate",
					"numinlets" : 2,
					"fontsize" : 10.0,
					"numoutlets" : 1,
					"outlettype" : [ "" ],
					"patching_rect" : [ 611.0, 526.0, 32.5, 18.0 ],
					"id" : "obj-46",
					"fontname" : "Arial"
				}

			}
, 			{
				"box" : 				{
					"maxclass" : "newobj",
					"text" : "!=",
					"numinlets" : 2,
					"fontsize" : 10.0,
					"numoutlets" : 1,
					"outlettype" : [ "int" ],
					"patching_rect" : [ 611.0, 497.0, 32.5, 18.0 ],
					"id" : "obj-45",
					"fontname" : "Arial"
				}

			}
, 			{
				"box" : 				{
					"maxclass" : "newobj",
					"text" : "t i i i",
					"numinlets" : 1,
					"fontsize" : 10.0,
					"numoutlets" : 3,
					"outlettype" : [ "int", "int", "int" ],
					"patching_rect" : [ 576.0, 448.0, 89.0, 18.0 ],
					"id" : "obj-44",
					"fontname" : "Arial"
				}

			}
, 			{
				"box" : 				{
					"maxclass" : "newobj",
					"text" : "bucket",
					"numinlets" : 1,
					"fontsize" : 10.0,
					"numoutlets" : 1,
					"outlettype" : [ "" ],
					"patching_rect" : [ 625.0, 473.0, 40.0, 18.0 ],
					"id" : "obj-43",
					"fontname" : "Arial"
				}

			}
, 			{
				"box" : 				{
					"maxclass" : "newobj",
					"text" : "+ 125",
					"numinlets" : 2,
					"fontsize" : 10.0,
					"numoutlets" : 1,
					"outlettype" : [ "int" ],
					"patching_rect" : [ 453.0, 493.0, 36.0, 18.0 ],
					"id" : "obj-42",
					"fontname" : "Arial"
				}

			}
, 			{
				"box" : 				{
					"maxclass" : "newobj",
					"text" : "* 125",
					"numinlets" : 2,
					"fontsize" : 10.0,
					"numoutlets" : 1,
					"outlettype" : [ "int" ],
					"patching_rect" : [ 453.0, 458.0, 34.0, 18.0 ],
					"id" : "obj-40",
					"fontname" : "Arial"
				}

			}
, 			{
				"box" : 				{
					"maxclass" : "newobj",
					"text" : "makenote 100 250",
					"numinlets" : 3,
					"fontsize" : 10.0,
					"numoutlets" : 2,
					"outlettype" : [ "float", "float" ],
					"patching_rect" : [ 611.0, 591.0, 93.0, 18.0 ],
					"id" : "obj-37",
					"fontname" : "Arial"
				}

			}
, 			{
				"box" : 				{
					"maxclass" : "toggle",
					"numinlets" : 1,
					"numoutlets" : 1,
					"outlettype" : [ "int" ],
					"patching_rect" : [ 416.0, 493.0, 20.0, 20.0 ],
					"id" : "obj-36"
				}

			}
, 			{
				"box" : 				{
					"maxclass" : "newobj",
					"text" : "metro 250",
					"numinlets" : 2,
					"fontsize" : 10.0,
					"numoutlets" : 1,
					"outlettype" : [ "bang" ],
					"patching_rect" : [ 416.0, 518.0, 56.0, 18.0 ],
					"id" : "obj-34",
					"fontname" : "Arial"
				}

			}
, 			{
				"box" : 				{
					"maxclass" : "number",
					"numinlets" : 1,
					"fontsize" : 10.0,
					"numoutlets" : 2,
					"outlettype" : [ "int", "bang" ],
					"patching_rect" : [ 611.0, 558.0, 50.0, 18.0 ],
					"id" : "obj-33",
					"fontname" : "Arial"
				}

			}
, 			{
				"box" : 				{
					"maxclass" : "number",
					"numinlets" : 1,
					"fontsize" : 10.0,
					"numoutlets" : 2,
					"outlettype" : [ "int", "bang" ],
					"patching_rect" : [ 453.0, 419.0, 50.0, 18.0 ],
					"id" : "obj-31",
					"fontname" : "Arial"
				}

			}
, 			{
				"box" : 				{
					"maxclass" : "message",
					"text" : "clear",
					"numinlets" : 2,
					"fontsize" : 10.0,
					"numoutlets" : 1,
					"outlettype" : [ "" ],
					"patching_rect" : [ 631.0, 223.0, 32.5, 16.0 ],
					"id" : "obj-29",
					"fontname" : "Arial"
				}

			}
, 			{
				"box" : 				{
					"maxclass" : "button",
					"numinlets" : 1,
					"numoutlets" : 1,
					"outlettype" : [ "bang" ],
					"patching_rect" : [ 642.0, 340.0, 20.0, 20.0 ],
					"id" : "obj-27"
				}

			}
, 			{
				"box" : 				{
					"maxclass" : "newobj",
					"text" : "prob",
					"numinlets" : 1,
					"fontsize" : 10.0,
					"numoutlets" : 2,
					"outlettype" : [ "int", "bang" ],
					"patching_rect" : [ 576.0, 392.0, 63.5, 18.0 ],
					"id" : "obj-23",
					"fontname" : "Arial",
					"save" : [ "#N", "prob", ";" ]
				}

			}
, 			{
				"box" : 				{
					"maxclass" : "newobj",
					"text" : "anal 16384",
					"numinlets" : 1,
					"fontsize" : 10.0,
					"numoutlets" : 1,
					"outlettype" : [ "list" ],
					"patching_rect" : [ 576.0, 340.0, 60.0, 18.0 ],
					"id" : "obj-24",
					"fontname" : "Arial"
				}

			}
, 			{
				"box" : 				{
					"maxclass" : "newobj",
					"text" : "prob",
					"numinlets" : 1,
					"fontsize" : 10.0,
					"numoutlets" : 2,
					"outlettype" : [ "int", "bang" ],
					"patching_rect" : [ 453.0, 390.0, 32.5, 18.0 ],
					"id" : "obj-20",
					"fontname" : "Arial",
					"save" : [ "#N", "prob", ";" ]
				}

			}
, 			{
				"box" : 				{
					"maxclass" : "newobj",
					"text" : "anal 50",
					"numinlets" : 1,
					"fontsize" : 10.0,
					"numoutlets" : 1,
					"outlettype" : [ "list" ],
					"patching_rect" : [ 453.0, 340.0, 43.0, 18.0 ],
					"id" : "obj-19",
					"fontname" : "Arial"
				}

			}
, 			{
				"box" : 				{
					"maxclass" : "message",
					"text" : "read",
					"numinlets" : 2,
					"fontsize" : 10.0,
					"numoutlets" : 1,
					"outlettype" : [ "" ],
					"patching_rect" : [ 189.0, 46.0, 32.5, 16.0 ],
					"id" : "obj-13",
					"fontname" : "Arial"
				}

			}
, 			{
				"box" : 				{
					"maxclass" : "message",
					"text" : "start, next",
					"numinlets" : 2,
					"fontsize" : 10.0,
					"numoutlets" : 1,
					"outlettype" : [ "" ],
					"patching_rect" : [ 173.0, 20.0, 54.0, 16.0 ],
					"id" : "obj-12",
					"fontname" : "Arial"
				}

			}
, 			{
				"box" : 				{
					"maxclass" : "message",
					"text" : "next",
					"numinlets" : 2,
					"fontsize" : 10.0,
					"numoutlets" : 1,
					"outlettype" : [ "" ],
					"patching_rect" : [ 87.0, 61.0, 27.0, 16.0 ],
					"id" : "obj-10",
					"fontname" : "Arial"
				}

			}
, 			{
				"box" : 				{
					"maxclass" : "toggle",
					"numinlets" : 1,
					"numoutlets" : 1,
					"outlettype" : [ "int" ],
					"patching_rect" : [ 38.0, 171.0, 20.0, 20.0 ],
					"id" : "obj-17"
				}

			}
, 			{
				"box" : 				{
					"maxclass" : "newobj",
					"text" : "gate",
					"numinlets" : 2,
					"fontsize" : 10.0,
					"numoutlets" : 1,
					"outlettype" : [ "" ],
					"patching_rect" : [ 38.0, 195.0, 107.0, 18.0 ],
					"id" : "obj-18",
					"fontname" : "Arial"
				}

			}
, 			{
				"box" : 				{
					"maxclass" : "newobj",
					"text" : "del 0",
					"numinlets" : 2,
					"fontsize" : 10.0,
					"numoutlets" : 1,
					"outlettype" : [ "bang" ],
					"patching_rect" : [ 126.0, 164.0, 32.5, 18.0 ],
					"id" : "obj-7",
					"fontname" : "Arial"
				}

			}
, 			{
				"box" : 				{
					"maxclass" : "newobj",
					"text" : "detonate",
					"numinlets" : 8,
					"fontsize" : 10.0,
					"numoutlets" : 8,
					"outlettype" : [ "int", "int", "int", "int", "int", "int", "int", "int" ],
					"patching_rect" : [ 126.0, 86.0, 309.0, 18.0 ],
					"id" : "obj-8",
					"fontname" : "Arial",
					"save" : [ "#N", "detonate", "", ";", "#X", "setparam", 0, "Time", 0, 0, 999999, 0, 1000, 200, 0, ";", "#X", "setparam", 1, "Pitch", 0, 0, 127, 60, 12, 4, 0, ";", "#X", "setparam", 2, "Vel", 0, 0, 127, 64, 12, 4, 0, ";", "#X", "setparam", 3, "Dur", 0, 1, 99999, 200, 800, 200, 0, ";", "#X", "setparam", 4, "Chan", 0, 1, 16, 1, 8, 1, 0, ";", "#X", "setparam", 5, "Track", 0, 1, 32, 1, 8, 1, 0, ";", "#X", "setparam", 6, "X1", 0, 0, 999, 0, 80, 20, 0, ";", "#X", "setparam", 7, "X2", 0, 0, 999, 0, 80, 20, 0, ";", "#X", "restore", ";", "#X", 833, 72, 100, 555, 13, 14, 0, 0, ";", "#X", 0, 77, 100, 10, 13, 14, 0, 0, ";", "#X", 0, 53, 100, 555, 13, 14, 0, 0, ";", "#X", 555, 57, 100, 2223, 13, 14, 0, 0, ";", "#X", 0, 85, 100, 10, 13, 14, 0, 0, ";", "#X", 0, 61, 100, 10, 13, 14, 0, 0, ";", "#X", 0, 49, 100, 10, 13, 14, 0, 0, ";", "#X", 0, 73, 100, 2223, 13, 14, 0, 0, ";", "#X", 2223, 60, 100, 1666, 13, 14, 0, 0, ";", "#X", 0, 52, 100, 10, 13, 14, 0, 0, ";", "#X", 0, 84, 100, 10, 13, 14, 0, 0, ";", "#X", 0, 72, 100, 10, 13, 14, 0, 0, ";", "#X", 0, 76, 100, 1666, 13, 14, 0, 0, ";", "#X", 1666, 53, 100, 556, 13, 14, 0, 0, ";", "#X", 0, 77, 100, 10, 13, 14, 0, 0, ";", "#X", 0, 72, 100, 556, 13, 14, 0, 0, ";", "#X", 556, 73, 100, 2222, 13, 14, 0, 0, ";", "#X", 0, 61, 100, 10, 13, 14, 0, 0, ";", "#X", 0, 57, 100, 10, 13, 14, 0, 0, ";", "#X", 0, 85, 100, 10, 13, 14, 0, 0, ";", "#X", 0, 49, 100, 2222, 13, 14, 0, 0, ";", "#X", 1250, 69, 100, 139, 8, 9, 0, 0, ";", "#X", 185, 65, 100, 139, 8, 9, 0, 0, ";", "#X", 214, 61, 100, 139, 8, 9, 0, 0, ";", "#X", 226, 60, 100, 139, 8, 9, 0, 0, ";", "#X", 347, 60, 100, 1667, 13, 14, 0, 0, ";", "#X", 0, 72, 100, 10, 13, 14, 0, 0, ";", "#X", 0, 52, 100, 10, 13, 14, 0, 0, ";", "#X", 0, 76, 100, 10, 13, 14, 0, 0, ";", "#X", 0, 84, 100, 1667, 13, 14, 0, 0, ";", "#X", 1667, 53, 100, 555, 13, 14, 0, 0, ";", "#X", 0, 77, 100, 10, 13, 14, 0, 0, ";", "#X", 0, 72, 100, 555, 13, 14, 0, 0, ";", "#X", 555, 61, 100, 2223, 13, 14, 0, 0, ";", "#X", 0, 73, 100, 10, 13, 14, 0, 0, ";", "#X", 0, 57, 100, 10, 13, 14, 0, 0, ";", "#X", 0, 85, 100, 10, 13, 14, 0, 0, ";", "#X", 0, 49, 100, 2223, 13, 14, 0, 0, ";", "#X", 2223, 88, 100, 1666, 13, 14, 0, 0, ";", "#X", 0, 60, 100, 10, 13, 14, 0, 0, ";", "#X", 0, 54, 100, 10, 13, 14, 0, 0, ";", "#X", 0, 76, 100, 10, 13, 14, 0, 0, ";", "#X", 0, 72, 100, 1666, 13, 14, 0, 0, ";", "#X", 1666, 53, 100, 556, 13, 14, 0, 0, ";", "#X", 0, 72, 100, 10, 13, 14, 0, 0, ";", "#X", 0, 77, 100, 556, 13, 14, 0, 0, ";", "#X", 556, 49, 100, 2222, 13, 14, 0, 0, ";", "#X", 0, 56, 100, 10, 13, 14, 0, 0, ";", "#X", 0, 92, 100, 10, 13, 14, 0, 0, ";", "#X", 0, 80, 100, 10, 13, 14, 0, 0, ";", "#X", 0, 61, 100, 2222, 13, 14, 0, 0, ";", "#X", 2222, 91, 100, 1667, 13, 14, 0, 0, ";", "#X", 0, 60, 100, 10, 13, 14, 0, 0, ";", "#X", 0, 55, 100, 10, 13, 14, 0, 0, ";", "#X", 0, 79, 100, 10, 13, 14, 0, 0, ";", "#X", 0, 72, 100, 1667, 13, 14, 0, 0, ";", "#X", 0, 73, 78, 139, 8, 9, 0, 0, ";", "#X", 185, 72, 78, 139, 8, 9, 0, 0, ";", "#X", 214, 65, 78, 139, 8, 9, 0, 0, ";", "#X", 226, 63, 78, 139, 8, 9, 0, 0, ";", "#X", 208, 60, 78, 139, 8, 9, 0, 0, ";", "#X", 226, 59, 78, 139, 8, 9, 0, 0, ";", "#X", 608, 51, 100, 555, 13, 14, 0, 0, ";", "#X", 0, 71, 100, 10, 13, 14, 0, 0, ";", "#X", 0, 78, 100, 555, 13, 14, 0, 0, ";", "#X", 555, 65, 100, 2222, 13, 14, 0, 0, ";", "#X", 0, 75, 100, 10, 13, 14, 0, 0, ";", "#X", 0, 49, 100, 10, 13, 14, 0, 0, ";", "#X", 0, 87, 100, 10, 13, 14, 0, 0, ";", "#X", 0, 53, 100, 2222, 13, 14, 0, 0, ";", "#X", 2222, 86, 100, 1667, 13, 14, 0, 0, ";", "#X", 0, 48, 100, 10, 13, 14, 0, 0, ";", "#X", 0, 64, 100, 10, 13, 14, 0, 0, ";", "#X", 0, 74, 100, 10, 13, 14, 0, 0, ";", "#X", 0, 54, 100, 1667, 13, 14, 0, 0, ";", "#X", 1667, 51, 100, 556, 13, 14, 0, 0, ";", "#X", 0, 71, 100, 10, 13, 14, 0, 0, ";", "#X", 0, 78, 100, 556, 13, 14, 0, 0, ";", "#X", 556, 65, 100, 2222, 13, 14, 0, 0, ";", "#X", 0, 75, 100, 10, 13, 14, 0, 0, ";", "#X", 0, 49, 100, 10, 13, 14, 0, 0, ";", "#X", 0, 53, 100, 10, 13, 14, 0, 0, ";", "#X", 0, 87, 100, 2222, 13, 14, 0, 0, ";", "#X", 2222, 54, 100, 1666, 13, 14, 0, 0, ";", "#X", 0, 74, 100, 10, 13, 14, 0, 0, ";", "#X", 0, 48, 100, 10, 13, 14, 0, 0, ";", "#X", 0, 64, 100, 10, 13, 14, 0, 0, ";", "#X", 0, 86, 100, 1666, 13, 14, 0, 0, ";", "#X", 1666, 75, 100, 278, 13, 14, 0, 0, ";", "#X", 0, 65, 100, 10, 13, 14, 0, 0, ";", "#X", 0, 53, 100, 10, 13, 14, 0, 0, ";", "#X", 0, 68, 100, 10, 13, 14, 0, 0, ";", "#X", 0, 87, 100, 10, 13, 14, 0, 0, ";", "#X", 0, 49, 100, 278, 13, 14, 0, 0, ";", "#X", 278, 70, 100, 278, 13, 14, 0, 0, ";", "#X", 0, 86, 100, 10, 13, 14, 0, 0, ";", "#X", 0, 64, 100, 10, 13, 14, 0, 0, ";", "#X", 0, 54, 100, 10, 13, 14, 0, 0, ";", "#X", 0, 48, 100, 10, 13, 14, 0, 0, ";", "#X", 0, 74, 100, 278, 13, 14, 0, 0, ";", "#X", 278, 83, 100, 2778, 13, 14, 0, 0, ";", "#X", 0, 61, 100, 10, 13, 14, 0, 0, ";", "#X", 0, 55, 100, 10, 13, 14, 0, 0, ";", "#X", 0, 47, 100, 10, 13, 14, 0, 0, ";", "#X", 0, 71, 100, 2778, 13, 14, 0, 0, ";", "#X", 2222, 66, 86, 139, 2, 3, 0, 0, ";", "#X", 139, 67, 86, 139, 2, 3, 0, 0, ";", "#X", 139, 70, 86, 139, 2, 3, 0, 0, ";", "#X", 139, 71, 86, 139, 2, 3, 0, 0, ";", "#X", 139, 66, 100, 139, 11, 12, 0, 0, ";", "#X", 0, 66, 100, 278, 9, 10, 0, 0, ";", "#X", 0, 72, 86, 139, 2, 3, 0, 0, ";", "#X", 278, 72, 86, 138, 2, 3, 0, 0, ";", "#X", 277, 73, 100, 278, 9, 10, 0, 0, ";", "#X", 0, 72, 86, 139, 2, 3, 0, 0, ";", "#X", 0, 69, 63, 139, 1, 2, 0, 0, ";", "#X", 0, 73, 63, 139, 1, 2, 0, 0, ";", "#X", 278, 72, 86, 139, 2, 3, 0, 0, ";", "#X", 278, 61, 100, 139, 11, 12, 0, 0, ";", "#X", 0, 61, 100, 278, 9, 10, 0, 0, ";", "#X", 0, 72, 86, 139, 2, 3, 0, 0, ";", "#X", 139, 73, 86, 139, 2, 3, 0, 0, ";", "#X", 139, 77, 86, 139, 2, 3, 0, 0, ";", "#X", 139, 78, 86, 138, 2, 3, 0, 0, ";", "#X", 138, 73, 100, 278, 9, 10, 0, 0, ";", "#X", 0, 81, 86, 139, 2, 3, 0, 0, ";", "#X", 1, 69, 63, 138, 1, 2, 0, 0, ";", "#X", 0, 73, 63, 138, 1, 2, 0, 0, ";", "#X", 277, 81, 86, 139, 2, 3, 0, 0, ";", "#X", 278, 66, 100, 139, 11, 12, 0, 0, ";", "#X", 0, 66, 100, 278, 9, 10, 0, 0, ";", "#X", 0, 81, 86, 139, 2, 3, 0, 0, ";", "#X", 278, 81, 86, 139, 2, 3, 0, 0, ";", "#X", 278, 73, 100, 277, 9, 10, 0, 0, ";", "#X", 0, 81, 86, 138, 2, 3, 0, 0, ";", "#X", 0, 73, 63, 139, 1, 2, 0, 0, ";", "#X", 0, 69, 63, 139, 1, 2, 0, 0, ";", "#X", 277, 81, 86, 139, 2, 3, 0, 0, ";", "#X", 278, 61, 100, 139, 11, 12, 0, 0, ";", "#X", 0, 61, 100, 278, 9, 10, 0, 0, ";", "#X", 0, 80, 86, 139, 2, 3, 0, 0, ";", "#X", 139, 81, 86, 139, 2, 3, 0, 0, ";", "#X", 139, 78, 86, 139, 2, 3, 0, 0, ";", "#X", 139, 73, 86, 139, 2, 3, 0, 0, ";", "#X", 139, 73, 100, 277, 9, 10, 0, 0, ";", "#X", 0, 69, 63, 139, 1, 2, 0, 0, ";", "#X", 0, 73, 63, 139, 1, 2, 0, 0, ";", "#X", 277, 72, 86, 139, 2, 3, 0, 0, ";", "#X", 278, 66, 100, 139, 11, 12, 0, 0, ";", "#X", 0, 66, 100, 278, 9, 10, 0, 0, ";", "#X", 0, 73, 86, 139, 2, 3, 0, 0, ";", "#X", 139, 72, 86, 139, 2, 3, 0, 0, ";", "#X", 139, 74, 86, 139, 2, 3, 0, 0, ";", "#X", 139, 73, 86, 139, 2, 3, 0, 0, ";", "#X", 139, 73, 100, 278, 9, 10, 0, 0, ";", "#X", 0, 75, 86, 139, 2, 3, 0, 0, ";", "#X", 0, 69, 63, 139, 1, 2, 0, 0, ";", "#X", 0, 73, 63, 139, 1, 2, 0, 0, ";", "#X", 278, 75, 86, 138, 2, 3, 0, 0, ";", "#X", 277, 61, 100, 139, 11, 12, 0, 0, ";", "#X", 0, 61, 100, 278, 9, 10, 0, 0, ";", "#X", 0, 75, 86, 139, 2, 3, 0, 0, ";", "#X", 139, 62, 100, 139, 11, 12, 0, 0, ";", "#X", 139, 63, 100, 1389, 11, 12, 0, 0, ";", "#X", 0, 75, 86, 139, 2, 3, 0, 0, ";", "#X", 278, 73, 100, 278, 9, 10, 0, 0, ";", "#X", 0, 75, 86, 139, 2, 3, 0, 0, ";", "#X", 0, 73, 63, 139, 1, 2, 0, 0, ";", "#X", 0, 69, 63, 139, 1, 2, 0, 0, ";", "#X", 278, 75, 86, 139, 2, 3, 0, 0, ";", "#X", 277, 66, 100, 139, 11, 12, 0, 0, ";", "#X", 0, 66, 100, 278, 9, 10, 0, 0, ";", "#X", 0, 73, 86, 139, 2, 3, 0, 0, ";", "#X", 139, 72, 86, 139, 2, 3, 0, 0, ";", "#X", 139, 75, 86, 139, 2, 3, 0, 0, ";", "#X", 139, 73, 86, 139, 2, 3, 0, 0, ";", "#X", 139, 73, 100, 278, 9, 10, 0, 0, ";", "#X", 0, 75, 85, 139, 2, 3, 0, 0, ";", "#X", 0, 69, 63, 139, 1, 2, 0, 0, ";", "#X", 0, 73, 63, 139, 1, 2, 0, 0, ";", "#X", 278, 61, 100, 139, 11, 12, 0, 0, ";", "#X", 0, 75, 85, 139, 2, 3, 0, 0, ";", "#X", 139, 62, 100, 139, 11, 12, 0, 0, ";", "#X", 139, 63, 100, 1388, 11, 12, 0, 0, ";", "#X", 0, 61, 100, 138, 11, 12, 0, 0, ";", "#X", 0, 61, 100, 277, 9, 10, 0, 0, ";", "#X", 0, 75, 85, 138, 2, 3, 0, 0, ";", "#X", 277, 75, 85, 139, 2, 3, 0, 0, ";", "#X", 278, 73, 100, 278, 9, 10, 0, 0, ";", "#X", 0, 75, 85, 139, 2, 3, 0, 0, ";", "#X", 0, 49, 51, 139, 1, 2, 0, 0, ";", "#X", 0, 41, 51, 10, 1, 2, 0, 0, ";", "#X", 0, 69, 63, 10, 1, 2, 0, 0, ";", "#X", 0, 73, 63, 139, 1, 2, 0, 0, ";", "#X", 139, 40, 57, 139, 1, 2, 0, 0, ";", "#X", 0, 48, 57, 139, 1, 2, 0, 0, ";", "#X", 139, 75, 85, 139, 2, 3, 0, 0, ";", "#X", 0, 41, 63, 139, 1, 2, 0, 0, ";", "#X", 0, 49, 63, 139, 1, 2, 0, 0, ";", "#X", 139, 50, 69, 139, 1, 2, 0, 0, ";", "#X", 0, 42, 69, 139, 1, 2, 0, 0, ";", "#X", 139, 43, 64, 1111, 3, 4, 0, 0, ";", "#X", 0, 39, 64, 1111, 3, 4, 0, 0, ";", "#X", 0, 51, 75, 1111, 1, 2, 0, 0, ";", "#X", 0, 43, 75, 1111, 1, 2, 0, 0, ";", "#X", 555, 40, 64, 556, 6, 7, 0, 0, ";", "#X", 556, 42, 64, 972, 3, 4, 0, 0, ";", "#X", 0, 38, 64, 972, 3, 4, 0, 0, ";", "#X", 0, 42, 74, 972, 1, 2, 0, 0, ";", "#X", 0, 50, 74, 972, 1, 2, 0, 0, ";", "#X", 555, 40, 64, 556, 6, 7, 0, 0, ";", "#X", 417, 41, 64, 139, 3, 4, 0, 0, ";", "#X", 0, 37, 64, 139, 3, 4, 0, 0, ";", "#X", 0, 41, 74, 139, 1, 2, 0, 0, ";", "#X", 0, 49, 74, 139, 1, 2, 0, 0, ";", "#X", 139, 43, 64, 1111, 3, 4, 0, 0, ";", "#X", 0, 39, 64, 1111, 3, 4, 0, 0, ";", "#X", 0, 51, 74, 1111, 1, 2, 0, 0, ";", "#X", 0, 43, 74, 1111, 1, 2, 0, 0, ";", "#X", 556, 40, 64, 555, 6, 7, 0, 0, ";", "#X", 555, 93, 100, 16667, 13, 14, 0, 0, ";", "#X", 0, 42, 64, 972, 3, 4, 0, 0, ";", "#X", 0, 38, 64, 972, 3, 4, 0, 0, ";", "#X", 0, 93, 100, 16111, 2, 3, 0, 0, ";", "#X", 0, 42, 74, 972, 1, 2, 0, 0, ";", "#X", 0, 50, 74, 972, 1, 2, 0, 0, ";", "#X", 556, 40, 64, 555, 6, 7, 0, 0, ";", "#X", 416, 41, 64, 139, 3, 4, 0, 0, ";", "#X", 0, 37, 64, 139, 3, 4, 0, 0, ";", "#X", 0, 41, 74, 139, 1, 2, 0, 0, ";", "#X", 0, 49, 74, 139, 1, 2, 0, 0, ";", "#X", 139, 43, 64, 417, 3, 4, 0, 0, ";", "#X", 0, 39, 64, 417, 3, 4, 0, 0, ";", "#X", 0, 51, 74, 417, 1, 2, 0, 0, ";", "#X", 0, 43, 74, 417, 1, 2, 0, 0, ";", "#X", 417, 42, 64, 139, 3, 4, 0, 0, ";", "#X", 0, 38, 64, 139, 3, 4, 0, 0, ";", "#X", 0, 42, 74, 139, 1, 2, 0, 0, ";", "#X", 0, 50, 74, 139, 1, 2, 0, 0, ";", "#X", 139, 40, 64, 555, 6, 7, 0, 0, ";", "#X", 0, 43, 64, 416, 3, 4, 0, 0, ";", "#X", 0, 39, 64, 416, 3, 4, 0, 0, ";", "#X", 0, 43, 74, 416, 1, 2, 0, 0, ";", "#X", 0, 51, 74, 416, 1, 2, 0, 0, ";", "#X", 416, 45, 64, 139, 3, 4, 0, 0, ";", "#X", 0, 41, 64, 139, 3, 4, 0, 0, ";", "#X", 0, 45, 74, 139, 1, 2, 0, 0, ";", "#X", 0, 53, 74, 139, 1, 2, 0, 0, ";", "#X", 139, 46, 64, 417, 3, 4, 0, 0, ";", "#X", 0, 42, 64, 417, 3, 4, 0, 0, ";", "#X", 0, 46, 74, 417, 1, 2, 0, 0, ";", "#X", 0, 54, 74, 417, 1, 2, 0, 0, ";", "#X", 417, 45, 64, 139, 3, 4, 0, 0, ";", "#X", 0, 41, 64, 139, 3, 4, 0, 0, ";", "#X", 0, 53, 74, 139, 1, 2, 0, 0, ";", "#X", 0, 45, 74, 139, 1, 2, 0, 0, ";", "#X", 139, 40, 64, 555, 6, 7, 0, 0, ";", "#X", 0, 46, 64, 416, 3, 4, 0, 0, ";", "#X", 0, 42, 64, 416, 3, 4, 0, 0, ";", "#X", 0, 54, 74, 417, 1, 2, 0, 0, ";", "#X", 0, 46, 74, 417, 1, 2, 0, 0, ";", "#X", 416, 49, 64, 139, 3, 4, 0, 0, ";", "#X", 0, 45, 64, 139, 3, 4, 0, 0, ";", "#X", 1, 49, 72, 138, 1, 2, 0, 0, ";", "#X", 0, 57, 72, 138, 1, 2, 0, 0, ";", "#X", 138, 52, 64, 1111, 3, 4, 0, 0, ";", "#X", 0, 48, 64, 1111, 3, 4, 0, 0, ";", "#X", 0, 52, 72, 1112, 1, 2, 0, 0, ";", "#X", 0, 60, 72, 1112, 1, 2, 0, 0, ";", "#X", 556, 40, 64, 556, 6, 7, 0, 0, ";", "#X", 555, 43, 64, 1112, 3, 4, 0, 0, ";", "#X", 0, 39, 64, 1112, 3, 4, 0, 0, ";", "#X", 1, 51, 74, 972, 1, 2, 0, 0, ";", "#X", 0, 43, 74, 972, 1, 2, 0, 0, ";", "#X", 555, 40, 64, 556, 6, 7, 0, 0, ";", "#X", 417, 50, 74, 139, 1, 2, 0, 0, ";", "#X", 0, 42, 74, 139, 1, 2, 0, 0, ";", "#X", 139, 75, 74, 1111, 5, 6, 0, 0, ";", "#X", 0, 67, 74, 1111, 1, 2, 0, 0, ";", "#X", 555, 40, 64, 556, 6, 7, 0, 0, ";", "#X", 556, 74, 74, 972, 5, 6, 0, 0, ";", "#X", 0, 66, 74, 972, 1, 2, 0, 0, ";", "#X", 555, 40, 64, 556, 6, 7, 0, 0, ";", "#X", 417, 73, 74, 139, 5, 6, 0, 0, ";", "#X", 0, 65, 74, 139, 1, 2, 0, 0, ";", "#X", 139, 75, 74, 1111, 5, 6, 0, 0, ";", "#X", 0, 67, 74, 1111, 1, 2, 0, 0, ";", "#X", 555, 40, 64, 556, 6, 7, 0, 0, ";", "#X", 556, 74, 74, 972, 5, 6, 0, 0, ";", "#X", 0, 66, 74, 972, 1, 2, 0, 0, ";", "#X", 556, 40, 64, 555, 6, 7, 0, 0, ";", "#X", 416, 73, 74, 139, 5, 6, 0, 0, ";", "#X", 0, 65, 74, 139, 1, 2, 0, 0, ";", "#X", 139, 75, 74, 417, 5, 6, 0, 0, ";", "#X", 0, 67, 74, 417, 1, 2, 0, 0, ";", "#X", 417, 74, 74, 139, 5, 6, 0, 0, ";", "#X", 0, 66, 74, 139, 1, 2, 0, 0, ";", "#X", 139, 40, 64, 555, 6, 7, 0, 0, ";", "#X", 0, 75, 74, 416, 5, 6, 0, 0, ";", "#X", 0, 67, 74, 416, 1, 2, 0, 0, ";", "#X", 416, 77, 74, 139, 5, 6, 0, 0, ";", "#X", 0, 69, 74, 139, 1, 2, 0, 0, ";", "#X", 139, 78, 74, 417, 5, 6, 0, 0, ";", "#X", 0, 70, 74, 417, 1, 2, 0, 0, ";", "#X", 417, 77, 74, 139, 5, 6, 0, 0, ";", "#X", 0, 69, 74, 139, 1, 2, 0, 0, ";", "#X", 139, 40, 64, 555, 6, 7, 0, 0, ";", "#X", 0, 78, 74, 416, 5, 6, 0, 0, ";", "#X", 0, 70, 74, 416, 1, 2, 0, 0, ";", "#X", 416, 81, 73, 139, 5, 6, 0, 0, ";", "#X", 0, 73, 72, 139, 1, 2, 0, 0, ";", "#X", 139, 84, 73, 1111, 5, 6, 0, 0, ";", "#X", 0, 76, 72, 1111, 1, 2, 0, 0, ";", "#X", 556, 40, 64, 555, 6, 7, 0, 0, ";", "#X", 555, 71, 74, 1111, 5, 6, 0, 0, ";", "#X", 0, 83, 73, 1111, 5, 6, 0, 0, ";", "#X", 0, 75, 73, 1112, 1, 2, 0, 0, ";", "#X", 556, 40, 64, 556, 6, 7, 0, 0, ";", "#X", 555, 72, 72, 1112, 5, 6, 0, 0, ";", "#X", 0, 60, 72, 1112, 5, 6, 0, 0, ";", "#X", 1, 65, 74, 1111, 1, 2, 0, 0, ";", "#X", 555, 40, 64, 556, 6, 7, 0, 0, ";", "#X", 556, 71, 120, 5555, 5, 6, 0, 0, ";", "#X", 0, 59, 120, 5555, 5, 6, 0, 0, ";", "#X", 0, 64, 74, 972, 1, 2, 0, 0, ";", "#X", 555, 63, 64, 556, 2, 3, 0, 0, ";", "#X", 556, 53, 100, 416, 13, 14, 0, 0, ";", "#X", 0, 64, 64, 555, 2, 3, 0, 0, ";", "#X", 555, 53, 100, 417, 13, 14, 0, 0, ";", "#X", 0, 67, 64, 556, 2, 3, 0, 0, ";", "#X", 556, 52, 100, 3194, 13, 14, 0, 0, ";", "#X", 0, 66, 64, 555, 2, 3, 0, 0, ";", "#X", 555, 70, 64, 556, 2, 3, 0, 0, ";", "#X", 556, 76, 64, 555, 2, 3, 0, 0, ";", "#X", 555, 75, 64, 556, 2, 3, 0, 0, ";", "#X", 556, 74, 64, 556, 2, 3, 0, 0, ";", "#X", 556, 77, 64, 555, 2, 3, 0, 0, ";", "#X", 555, 70, 63, 139, 13, 14, 0, 0, ";", "#X", 0, 58, 79, 209, 11, 12, 0, 0, ";", "#X", 0, 82, 64, 556, 2, 3, 0, 0, ";", "#X", 139, 70, 64, 139, 13, 14, 0, 0, ";", "#X", 139, 70, 65, 139, 13, 14, 0, 0, ";", "#X", 0, 58, 79, 197, 11, 12, 0, 0, ";", "#X", 139, 70, 66, 139, 13, 14, 0, 0, ";", "#X", 139, 73, 67, 139, 13, 14, 0, 0, ";", "#X", 0, 61, 79, 208, 11, 12, 0, 0, ";", "#X", 139, 73, 68, 139, 13, 14, 0, 0, ";", "#X", 139, 73, 69, 138, 13, 14, 0, 0, ";", "#X", 0, 61, 79, 196, 11, 12, 0, 0, ";", "#X", 138, 73, 70, 139, 13, 14, 0, 0, ";", "#X", 139, 72, 71, 139, 13, 14, 0, 0, ";", "#X", 0, 60, 79, 209, 11, 12, 0, 0, ";", "#X", 139, 72, 72, 139, 13, 14, 0, 0, ";", "#X", 139, 72, 73, 139, 13, 14, 0, 0, ";", "#X", 0, 60, 79, 197, 11, 12, 0, 0, ";", "#X", 139, 72, 74, 139, 13, 14, 0, 0, ";", "#X", 139, 74, 75, 139, 13, 14, 0, 0, ";", "#X", 0, 62, 79, 208, 11, 12, 0, 0, ";", "#X", 139, 74, 76, 139, 13, 14, 0, 0, ";", "#X", 139, 74, 77, 139, 13, 14, 0, 0, ";", "#X", 0, 62, 79, 196, 11, 12, 0, 0, ";", "#X", 139, 74, 78, 138, 13, 14, 0, 0, ";", "#X", 138, 75, 79, 139, 13, 14, 0, 0, ";", "#X", 0, 63, 79, 209, 11, 12, 0, 0, ";", "#X", 139, 75, 80, 139, 13, 14, 0, 0, ";", "#X", 139, 75, 81, 139, 13, 14, 0, 0, ";", "#X", 0, 63, 79, 197, 11, 12, 0, 0, ";", "#X", 139, 75, 82, 139, 13, 14, 0, 0, ";", "#X", 139, 77, 83, 139, 13, 14, 0, 0, ";", "#X", 0, 65, 79, 208, 11, 12, 0, 0, ";", "#X", 139, 77, 84, 139, 13, 14, 0, 0, ";", "#X", 139, 77, 85, 139, 13, 14, 0, 0, ";", "#X", 0, 65, 79, 196, 11, 12, 0, 0, ";", "#X", 139, 77, 86, 139, 13, 14, 0, 0, ";", "#X", 139, 77, 87, 138, 13, 14, 0, 0, ";", "#X", 0, 65, 79, 208, 11, 12, 0, 0, ";", "#X", 138, 77, 88, 139, 13, 14, 0, 0, ";", "#X", 139, 77, 89, 139, 13, 14, 0, 0, ";", "#X", 0, 65, 79, 197, 11, 12, 0, 0, ";", "#X", 139, 77, 90, 139, 13, 14, 0, 0, ";", "#X", 139, 71, 41, 139, 15, 16, 0, 0, ";", "#X", 0, 59, 41, 139, 15, 16, 0, 0, ";", "#X", 0, 80, 91, 139, 13, 14, 0, 0, ";", "#X", 0, 59, 37, 139, 12, 13, 0, 0, ";", "#X", 0, 71, 37, 139, 12, 13, 0, 0, ";", "#X", 0, 68, 79, 208, 11, 12, 0, 0, ";", "#X", 0, 64, 79, 208, 11, 12, 0, 0, ";", "#X", 139, 80, 92, 139, 13, 14, 0, 0, ";", "#X", 139, 71, 50, 139, 15, 16, 0, 0, ";", "#X", 0, 59, 50, 139, 15, 16, 0, 0, ";", "#X", 0, 80, 93, 139, 13, 14, 0, 0, ";", "#X", 0, 71, 47, 139, 12, 13, 0, 0, ";", "#X", 0, 59, 47, 139, 12, 13, 0, 0, ";", "#X", 0, 64, 79, 197, 11, 12, 0, 0, ";", "#X", 0, 68, 79, 197, 11, 12, 0, 0, ";", "#X", 139, 80, 94, 139, 13, 14, 0, 0, ";", "#X", 139, 71, 59, 139, 15, 16, 0, 0, ";", "#X", 0, 59, 59, 139, 15, 16, 0, 0, ";", "#X", 0, 80, 95, 139, 13, 14, 0, 0, ";", "#X", 0, 71, 56, 139, 12, 13, 0, 0, ";", "#X", 0, 59, 56, 139, 12, 13, 0, 0, ";", "#X", 0, 64, 79, 208, 11, 12, 0, 0, ";", "#X", 0, 68, 79, 208, 11, 12, 0, 0, ";", "#X", 139, 80, 96, 138, 13, 14, 0, 0, ";", "#X", 138, 71, 68, 139, 15, 16, 0, 0, ";", "#X", 0, 59, 68, 139, 15, 16, 0, 0, ";", "#X", 0, 80, 97, 139, 13, 14, 0, 0, ";", "#X", 0, 59, 65, 139, 12, 13, 0, 0, ";", "#X", 0, 71, 65, 139, 12, 13, 0, 0, ";", "#X", 0, 64, 79, 197, 11, 12, 0, 0, ";", "#X", 0, 68, 79, 197, 11, 12, 0, 0, ";", "#X", 139, 80, 98, 139, 13, 14, 0, 0, ";", "#X", 139, 71, 76, 139, 15, 16, 0, 0, ";", "#X", 0, 59, 76, 139, 15, 16, 0, 0, ";", "#X", 0, 83, 99, 139, 13, 14, 0, 0, ";", "#X", 0, 59, 75, 139, 12, 13, 0, 0, ";", "#X", 0, 71, 75, 139, 12, 13, 0, 0, ";", "#X", 0, 67, 79, 209, 11, 12, 0, 0, ";", "#X", 0, 71, 79, 209, 11, 12, 0, 0, ";", "#X", 139, 83, 100, 139, 13, 14, 0, 0, ";", "#X", 139, 71, 85, 139, 15, 16, 0, 0, ";", "#X", 0, 59, 85, 139, 15, 16, 0, 0, ";", "#X", 0, 83, 101, 139, 13, 14, 0, 0, ";", "#X", 0, 71, 84, 139, 12, 13, 0, 0, ";", "#X", 0, 59, 84, 139, 12, 13, 0, 0, ";", "#X", 0, 67, 79, 197, 11, 12, 0, 0, ";", "#X", 0, 71, 79, 197, 11, 12, 0, 0, ";", "#X", 139, 83, 102, 139, 13, 14, 0, 0, ";", "#X", 139, 71, 94, 139, 15, 16, 0, 0, ";", "#X", 0, 59, 94, 139, 15, 16, 0, 0, ";", "#X", 0, 83, 103, 139, 13, 14, 0, 0, ";", "#X", 0, 71, 93, 139, 12, 13, 0, 0, ";", "#X", 0, 59, 93, 139, 12, 13, 0, 0, ";", "#X", 0, 67, 79, 208, 11, 12, 0, 0, ";", "#X", 0, 71, 79, 208, 11, 12, 0, 0, ";", "#X", 139, 83, 104, 139, 13, 14, 0, 0, ";", "#X", 139, 71, 103, 138, 15, 16, 0, 0, ";", "#X", 0, 59, 103, 138, 15, 16, 0, 0, ";", "#X", 0, 83, 105, 138, 13, 14, 0, 0, ";", "#X", 0, 71, 103, 138, 12, 13, 0, 0, ";", "#X", 0, 59, 103, 138, 12, 13, 0, 0, ";", "#X", 0, 67, 79, 196, 11, 12, 0, 0, ";", "#X", 0, 71, 79, 196, 11, 12, 0, 0, ";", "#X", 138, 83, 106, 139, 13, 14, 0, 0, ";", "#X", 139, 71, 111, 139, 15, 16, 0, 0, ";", "#X", 0, 59, 111, 139, 15, 16, 0, 0, ";", "#X", 0, 83, 107, 139, 13, 14, 0, 0, ";", "#X", 0, 59, 112, 139, 12, 13, 0, 0, ";", "#X", 0, 71, 112, 139, 12, 13, 0, 0, ";", "#X", 0, 67, 79, 197, 11, 12, 0, 0, ";", "#X", 0, 71, 79, 197, 11, 12, 0, 0, ";", "#X", 0, 57, 53, 139, 6, 7, 0, 0, ";", "#X", 0, 49, 72, 2222, 3, 4, 0, 0, ";", "#X", 139, 83, 108, 139, 13, 14, 0, 0, ";", "#X", 0, 57, 53, 139, 6, 7, 0, 0, ";", "#X", 139, 71, 120, 139, 15, 16, 0, 0, ";", "#X", 0, 59, 120, 139, 15, 16, 0, 0, ";", "#X", 0, 83, 109, 139, 13, 14, 0, 0, ";", "#X", 0, 59, 121, 139, 12, 13, 0, 0, ";", "#X", 0, 71, 121, 139, 12, 13, 0, 0, ";", "#X", 0, 67, 79, 197, 11, 12, 0, 0, ";", "#X", 0, 71, 79, 197, 11, 12, 0, 0, ";", "#X", 0, 57, 53, 139, 6, 7, 0, 0, ";", "#X", 139, 83, 110, 139, 13, 14, 0, 0, ";", "#X", 0, 57, 53, 139, 6, 7, 0, 0, ";", "#X", 139, 71, 126, 139, 15, 16, 0, 0, ";", "#X", 0, 59, 126, 139, 15, 16, 0, 0, ";", "#X", 0, 83, 111, 139, 13, 14, 0, 0, ";", "#X", 0, 71, 126, 139, 12, 13, 0, 0, ";", "#X", 0, 59, 126, 139, 12, 13, 0, 0, ";", "#X", 0, 67, 79, 10, 11, 12, 0, 0, ";", "#X", 0, 71, 79, 208, 11, 12, 0, 0, ";", "#X", 0, 57, 53, 139, 6, 7, 0, 0, ";", "#X", 139, 72, 126, 139, 15, 16, 0, 0, ";", "#X", 0, 60, 126, 139, 15, 16, 0, 0, ";", "#X", 0, 83, 112, 139, 13, 14, 0, 0, ";", "#X", 0, 72, 126, 139, 12, 13, 0, 0, ";", "#X", 0, 60, 126, 139, 12, 13, 0, 0, ";", "#X", 0, 72, 79, 139, 11, 12, 0, 0, ";", "#X", 0, 68, 79, 10, 11, 12, 0, 0, ";", "#X", 0, 57, 53, 139, 6, 7, 0, 0, ";", "#X", 139, 71, 126, 139, 15, 16, 0, 0, ";", "#X", 0, 59, 126, 139, 15, 16, 0, 0, ";", "#X", 0, 83, 113, 139, 13, 14, 0, 0, ";", "#X", 0, 59, 126, 139, 12, 13, 0, 0, ";", "#X", 0, 71, 126, 139, 12, 13, 0, 0, ";", "#X", 0, 71, 79, 208, 11, 12, 0, 0, ";", "#X", 0, 67, 79, 208, 11, 12, 0, 0, ";", "#X", 0, 57, 53, 139, 6, 7, 0, 0, ";", "#X", 139, 83, 114, 138, 13, 14, 0, 0, ";", "#X", 0, 57, 53, 138, 6, 7, 0, 0, ";", "#X", 138, 71, 126, 139, 15, 16, 0, 0, ";", "#X", 0, 59, 126, 139, 15, 16, 0, 0, ";", "#X", 0, 83, 115, 139, 13, 14, 0, 0, ";", "#X", 0, 71, 126, 139, 12, 13, 0, 0, ";", "#X", 0, 59, 126, 139, 12, 13, 0, 0, ";", "#X", 0, 71, 79, 209, 11, 12, 0, 0, ";", "#X", 0, 67, 79, 209, 11, 12, 0, 0, ";", "#X", 0, 57, 53, 139, 6, 7, 0, 0, ";", "#X", 139, 83, 116, 139, 13, 14, 0, 0, ";", "#X", 0, 57, 53, 139, 6, 7, 0, 0, ";", "#X", 139, 71, 126, 139, 15, 16, 0, 0, ";", "#X", 0, 59, 126, 139, 15, 16, 0, 0, ";", "#X", 0, 83, 117, 139, 13, 14, 0, 0, ";", "#X", 0, 59, 126, 139, 12, 13, 0, 0, ";", "#X", 0, 71, 126, 139, 12, 13, 0, 0, ";", "#X", 0, 71, 79, 209, 11, 12, 0, 0, ";", "#X", 0, 67, 79, 209, 11, 12, 0, 0, ";", "#X", 0, 57, 53, 139, 6, 7, 0, 0, ";", "#X", 139, 83, 118, 139, 13, 14, 0, 0, ";", "#X", 0, 57, 53, 139, 6, 7, 0, 0, ";", "#X", 139, 70, 126, 139, 15, 16, 0, 0, ";", "#X", 0, 58, 126, 139, 15, 16, 0, 0, ";", "#X", 0, 83, 119, 139, 13, 14, 0, 0, ";", "#X", 0, 70, 126, 139, 12, 13, 0, 0, ";", "#X", 0, 58, 126, 139, 12, 13, 0, 0, ";", "#X", 0, 66, 79, 208, 11, 12, 0, 0, ";", "#X", 0, 70, 79, 208, 11, 12, 0, 0, ";", "#X", 0, 57, 53, 139, 6, 7, 0, 0, ";", "#X", 139, 83, 120, 139, 13, 14, 0, 0, ";", "#X", 0, 57, 53, 139, 6, 7, 0, 0, ";", "#X", 139, 71, 126, 139, 15, 16, 0, 0, ";", "#X", 0, 59, 126, 139, 15, 16, 0, 0, ";", "#X", 0, 83, 121, 139, 13, 14, 0, 0, ";", "#X", 0, 59, 126, 139, 12, 13, 0, 0, ";", "#X", 0, 71, 126, 139, 12, 13, 0, 0, ";", "#X", 0, 67, 79, 208, 11, 12, 0, 0, ";", "#X", 0, 71, 79, 208, 11, 12, 0, 0, ";", "#X", 0, 57, 53, 139, 6, 7, 0, 0, ";", "#X", 139, 83, 122, 139, 13, 14, 0, 0, ";", "#X", 0, 57, 53, 139, 6, 7, 0, 0, ";", "#X", 138, 48, 72, 417, 3, 4, 0, 0, ";", "#X", 1, 72, 126, 277, 15, 16, 0, 0, ";", "#X", 0, 60, 126, 277, 15, 16, 0, 0, ";", "#X", 0, 72, 100, 138, 13, 14, 0, 0, ";", "#X", 0, 84, 100, 138, 13, 14, 0, 0, ";", "#X", 0, 72, 126, 277, 12, 13, 0, 0, ";", "#X", 0, 60, 126, 277, 12, 13, 0, 0, ";", "#X", 0, 64, 79, 277, 11, 12, 0, 0, ";", "#X", 0, 72, 79, 277, 11, 12, 0, 0, ";", "#X", 0, 58, 53, 555, 6, 7, 0, 0, ";", "#X", 0, 36, 100, 138, 1, 2, 0, 0, ";", "#X", 0, 40, 100, 138, 1, 2, 0, 0, ";", "#X", 138, 72, 32, 139, 13, 14, 0, 0, ";", "#X", 0, 84, 32, 139, 13, 14, 0, 0, ";", "#X", 139, 84, 32, 139, 13, 14, 0, 0, ";", "#X", 0, 72, 32, 139, 13, 14, 0, 0, ";", "#X", 139, 84, 32, 139, 13, 14, 0, 0, ";", "#X", 0, 72, 32, 139, 13, 14, 0, 0, ";", "#X", 139, 84, 31, 139, 13, 14, 0, 0, ";", "#X", 0, 72, 31, 139, 13, 14, 0, 0, ";", "#X", 0, 35, 100, 556, 1, 2, 0, 0, ";", "#X", 0, 39, 100, 556, 1, 2, 0, 0, ";", "#X", 139, 72, 31, 139, 13, 14, 0, 0, ";", "#X", 0, 84, 31, 139, 13, 14, 0, 0, ";", "#X", 139, 84, 31, 139, 13, 14, 0, 0, ";", "#X", 0, 72, 31, 139, 13, 14, 0, 0, ";", "#X", 139, 84, 30, 139, 13, 14, 0, 0, ";", "#X", 0, 72, 30, 139, 13, 14, 0, 0, ";", "#X", 139, 84, 30, 139, 13, 14, 0, 0, ";", "#X", 0, 72, 30, 139, 13, 14, 0, 0, ";", "#X", 0, 38, 100, 139, 1, 2, 0, 0, ";", "#X", 0, 42, 100, 139, 1, 2, 0, 0, ";", "#X", 139, 84, 30, 138, 13, 14, 0, 0, ";", "#X", 0, 72, 30, 138, 13, 14, 0, 0, ";", "#X", 138, 72, 29, 139, 13, 14, 0, 0, ";", "#X", 0, 84, 29, 139, 13, 14, 0, 0, ";", "#X", 139, 72, 29, 139, 13, 14, 0, 0, ";", "#X", 0, 84, 29, 139, 13, 14, 0, 0, ";", "#X", 139, 84, 29, 139, 13, 14, 0, 0, ";", "#X", 0, 72, 29, 139, 13, 14, 0, 0, ";", "#X", 0, 35, 100, 556, 1, 2, 0, 0, ";", "#X", 139, 84, 28, 139, 13, 14, 0, 0, ";", "#X", 0, 72, 28, 139, 13, 14, 0, 0, ";", "#X", 139, 72, 28, 139, 13, 14, 0, 0, ";", "#X", 0, 84, 28, 139, 13, 14, 0, 0, ";", "#X", 139, 84, 28, 139, 13, 14, 0, 0, ";", "#X", 0, 72, 28, 139, 13, 14, 0, 0, ";", "#X", 139, 84, 28, 139, 13, 14, 0, 0, ";", "#X", 0, 72, 28, 139, 13, 14, 0, 0, ";", "#X", 0, 40, 100, 139, 1, 2, 0, 0, ";", "#X", 0, 36, 100, 139, 1, 2, 0, 0, ";", "#X", 139, 84, 27, 139, 13, 14, 0, 0, ";", "#X", 0, 72, 27, 139, 13, 14, 0, 0, ";", "#X", 139, 84, 27, 138, 13, 14, 0, 0, ";", "#X", 0, 72, 27, 138, 13, 14, 0, 0, ";", "#X", 138, 84, 27, 139, 13, 14, 0, 0, ";", "#X", 0, 72, 27, 139, 13, 14, 0, 0, ";", "#X", 139, 84, 26, 139, 13, 14, 0, 0, ";", "#X", 0, 72, 26, 139, 13, 14, 0, 0, ";", "#X", 0, 39, 100, 556, 1, 2, 0, 0, ";", "#X", 0, 35, 100, 556, 1, 2, 0, 0, ";", "#X", 139, 84, 26, 139, 13, 14, 0, 0, ";", "#X", 0, 72, 26, 139, 13, 14, 0, 0, ";", "#X", 139, 84, 26, 139, 13, 14, 0, 0, ";", "#X", 0, 72, 26, 139, 13, 14, 0, 0, ";", "#X", 139, 72, 25, 139, 13, 14, 0, 0, ";", "#X", 0, 84, 25, 139, 13, 14, 0, 0, ";", "#X", 139, 84, 25, 139, 13, 14, 0, 0, ";", "#X", 0, 72, 25, 139, 13, 14, 0, 0, ";", "#X", 0, 42, 100, 139, 1, 2, 0, 0, ";", "#X", 0, 38, 100, 139, 1, 2, 0, 0, ";", "#X", 139, 84, 25, 139, 13, 14, 0, 0, ";", "#X", 0, 72, 25, 139, 13, 14, 0, 0, ";", "#X", 139, 72, 24, 139, 13, 14, 0, 0, ";", "#X", 0, 84, 24, 139, 13, 14, 0, 0, ";", "#X", 139, 72, 24, 138, 13, 14, 0, 0, ";", "#X", 0, 84, 24, 138, 13, 14, 0, 0, ";", "#X", 138, 84, 24, 139, 13, 14, 0, 0, ";", "#X", 0, 72, 24, 139, 13, 14, 0, 0, ";", "#X", 0, 35, 100, 556, 1, 2, 0, 0, ";", "#X", 139, 84, 23, 139, 13, 14, 0, 0, ";", "#X", 0, 72, 23, 139, 13, 14, 0, 0, ";", "#X", 139, 84, 23, 139, 13, 14, 0, 0, ";", "#X", 0, 72, 23, 139, 13, 14, 0, 0, ";", "#X", 139, 84, 23, 139, 13, 14, 0, 0, ";", "#X", 0, 72, 23, 139, 13, 14, 0, 0, ";", "#X", 139, 72, 22, 139, 13, 14, 0, 0, ";", "#X", 0, 84, 22, 139, 13, 14, 0, 0, ";", "#X", 0, 56, 88, 278, 11, 12, 0, 0, ";", "#X", 0, 40, 100, 139, 1, 2, 0, 0, ";", "#X", 0, 36, 100, 139, 1, 2, 0, 0, ";", "#X", 139, 84, 22, 139, 13, 14, 0, 0, ";", "#X", 0, 72, 22, 139, 13, 14, 0, 0, ";", "#X", 139, 84, 22, 139, 13, 14, 0, 0, ";", "#X", 0, 72, 22, 139, 13, 14, 0, 0, ";", "#X", 139, 72, 21, 139, 13, 14, 0, 0, ";", "#X", 0, 84, 21, 139, 13, 14, 0, 0, ";", "#X", 139, 72, 21, 138, 13, 14, 0, 0, ";", "#X", 0, 84, 21, 138, 13, 14, 0, 0, ";", "#X", 0, 56, 100, 277, 11, 12, 0, 0, ";", "#X", 0, 39, 100, 555, 1, 2, 0, 0, ";", "#X", 0, 35, 100, 555, 1, 2, 0, 0, ";", "#X", 138, 72, 21, 139, 13, 14, 0, 0, ";", "#X", 0, 84, 21, 139, 13, 14, 0, 0, ";", "#X", 139, 84, 20, 139, 13, 14, 0, 0, ";", "#X", 0, 72, 20, 139, 13, 14, 0, 0, ";", "#X", 139, 84, 20, 139, 13, 14, 0, 0, ";", "#X", 0, 72, 20, 139, 13, 14, 0, 0, ";", "#X", 139, 84, 20, 139, 13, 14, 0, 0, ";", "#X", 0, 72, 20, 139, 13, 14, 0, 0, ";", "#X", 0, 56, 89, 278, 11, 12, 0, 0, ";", "#X", 0, 42, 100, 139, 1, 2, 0, 0, ";", "#X", 0, 38, 100, 139, 1, 2, 0, 0, ";", "#X", 139, 84, 19, 139, 13, 14, 0, 0, ";", "#X", 0, 72, 19, 139, 13, 14, 0, 0, ";", "#X", 139, 84, 19, 139, 13, 14, 0, 0, ";", "#X", 0, 72, 19, 139, 13, 14, 0, 0, ";", "#X", 139, 72, 19, 139, 13, 14, 0, 0, ";", "#X", 0, 84, 19, 139, 13, 14, 0, 0, ";", "#X", 139, 72, 18, 139, 13, 14, 0, 0, ";", "#X", 0, 84, 18, 139, 13, 14, 0, 0, ";", "#X", 0, 56, 100, 277, 11, 12, 0, 0, ";", "#X", 0, 48, 26, 34, 10, 11, 0, 0, ";", "#X", 0, 35, 100, 555, 1, 2, 0, 0, ";", "#X", 69, 48, 29, 41, 10, 11, 0, 0, ";", "#X", 69, 48, 31, 35, 10, 11, 0, 0, ";", "#X", 1, 84, 18, 138, 13, 14, 0, 0, ";", "#X", 0, 72, 18, 138, 13, 14, 0, 0, ";", "#X", 69, 48, 33, 40, 10, 11, 0, 0, ";", "#X", 69, 84, 18, 139, 13, 14, 0, 0, ";", "#X", 0, 72, 18, 139, 13, 14, 0, 0, ";", "#X", 0, 59, 100, 278, 11, 12, 0, 0, ";", "#X", 0, 48, 36, 35, 10, 11, 0, 0, ";", "#X", 70, 48, 38, 40, 10, 11, 0, 0, ";", "#X", 69, 72, 17, 139, 13, 14, 0, 0, ";", "#X", 0, 84, 17, 139, 13, 14, 0, 0, ";", "#X", 0, 48, 40, 35, 10, 11, 0, 0, ";", "#X", 70, 48, 43, 40, 10, 11, 0, 0, ";", "#X", 69, 84, 17, 139, 13, 14, 0, 0, ";", "#X", 0, 72, 17, 139, 13, 14, 0, 0, ";", "#X", 0, 59, 100, 2222, 11, 12, 0, 0, ";", "#X", 0, 48, 45, 35, 10, 11, 0, 0, ";", "#X", 0, 40, 100, 139, 1, 2, 0, 0, ";", "#X", 0, 36, 100, 139, 1, 2, 0, 0, ";", "#X", 70, 48, 48, 40, 10, 11, 0, 0, ";", "#X", 69, 84, 17, 139, 13, 14, 0, 0, ";", "#X", 0, 72, 17, 139, 13, 14, 0, 0, ";", "#X", 0, 48, 50, 35, 10, 11, 0, 0, ";", "#X", 69, 48, 52, 41, 10, 11, 0, 0, ";", "#X", 70, 84, 16, 139, 13, 14, 0, 0, ";", "#X", 0, 72, 16, 139, 13, 14, 0, 0, ";", "#X", 0, 48, 55, 35, 10, 11, 0, 0, ";", "#X", 69, 48, 57, 41, 10, 11, 0, 0, ";", "#X", 70, 84, 16, 139, 13, 14, 0, 0, ";", "#X", 0, 72, 16, 139, 13, 14, 0, 0, ";", "#X", 0, 48, 59, 35, 10, 11, 0, 0, ";", "#X", 69, 48, 62, 41, 10, 11, 0, 0, ";", "#X", 70, 72, 16, 139, 13, 14, 0, 0, ";", "#X", 0, 84, 16, 139, 13, 14, 0, 0, ";", "#X", 0, 48, 64, 34, 10, 11, 0, 0, ";", "#X", 0, 39, 100, 555, 1, 2, 0, 0, ";", "#X", 0, 35, 100, 555, 1, 2, 0, 0, ";", "#X", 69, 48, 66, 41, 10, 11, 0, 0, ";", "#X", 70, 72, 15, 139, 13, 14, 0, 0, ";", "#X", 0, 84, 15, 139, 13, 14, 0, 0, ";", "#X", 0, 48, 69, 34, 10, 11, 0, 0, ";", "#X", 69, 48, 71, 41, 10, 11, 0, 0, ";", "#X", 69, 48, 73, 35, 10, 11, 0, 0, ";", "#X", 1, 84, 15, 138, 13, 14, 0, 0, ";", "#X", 0, 72, 15, 138, 13, 14, 0, 0, ";", "#X", 69, 48, 76, 40, 10, 11, 0, 0, ";", "#X", 69, 84, 15, 139, 13, 14, 0, 0, ";", "#X", 0, 72, 15, 139, 13, 14, 0, 0, ";", "#X", 0, 48, 78, 35, 10, 11, 0, 0, ";", "#X", 70, 48, 81, 40, 10, 11, 0, 0, ";", "#X", 69, 72, 15, 139, 13, 14, 0, 0, ";", "#X", 0, 84, 15, 139, 13, 14, 0, 0, ";", "#X", 0, 48, 100, 2084, 10, 11, 0, 0, ";", "#X", 0, 42, 100, 139, 1, 2, 0, 0, ";", "#X", 0, 38, 100, 139, 1, 2, 0, 0, ";", "#X", 139, 72, 14, 139, 13, 14, 0, 0, ";", "#X", 0, 84, 14, 139, 13, 14, 0, 0, ";", "#X", 139, 84, 14, 139, 13, 14, 0, 0, ";", "#X", 0, 72, 14, 139, 13, 14, 0, 0, ";", "#X", 139, 84, 14, 139, 13, 14, 0, 0, ";", "#X", 0, 72, 14, 139, 13, 14, 0, 0, ";", "#X", 139, 84, 13, 139, 13, 14, 0, 0, ";", "#X", 0, 72, 13, 139, 13, 14, 0, 0, ";", "#X", 0, 43, 125, 2083, 10, 11, 0, 0, ";", "#X", 0, 35, 100, 555, 1, 2, 0, 0, ";", "#X", 139, 72, 13, 139, 13, 14, 0, 0, ";", "#X", 0, 84, 13, 139, 13, 14, 0, 0, ";", "#X", 139, 84, 13, 139, 13, 14, 0, 0, ";", "#X", 0, 72, 13, 139, 13, 14, 0, 0, ";", "#X", 139, 84, 12, 138, 13, 14, 0, 0, ";", "#X", 0, 72, 12, 138, 13, 14, 0, 0, ";", "#X", 138, 84, 12, 139, 13, 14, 0, 0, ";", "#X", 0, 72, 12, 139, 13, 14, 0, 0, ";", "#X", 0, 40, 100, 139, 1, 2, 0, 0, ";", "#X", 0, 36, 100, 139, 1, 2, 0, 0, ";", "#X", 139, 84, 12, 139, 13, 14, 0, 0, ";", "#X", 0, 72, 12, 139, 13, 14, 0, 0, ";", "#X", 139, 72, 11, 139, 13, 14, 0, 0, ";", "#X", 0, 84, 11, 139, 13, 14, 0, 0, ";", "#X", 0, 56, 100, 278, 11, 12, 0, 0, ";", "#X", 139, 72, 11, 139, 13, 14, 0, 0, ";", "#X", 0, 84, 11, 139, 13, 14, 0, 0, ";", "#X", 139, 84, 11, 139, 13, 14, 0, 0, ";", "#X", 0, 72, 11, 139, 13, 14, 0, 0, ";", "#X", 0, 55, 100, 2500, 11, 12, 0, 0, ";", "#X", 0, 39, 100, 556, 1, 2, 0, 0, ";", "#X", 0, 35, 100, 556, 1, 2, 0, 0, ";", "#X", 139, 84, 10, 139, 13, 14, 0, 0, ";", "#X", 0, 72, 10, 139, 13, 14, 0, 0, ";", "#X", 139, 72, 10, 139, 13, 14, 0, 0, ";", "#X", 0, 84, 10, 139, 13, 14, 0, 0, ";", "#X", 139, 84, 10, 139, 13, 14, 0, 0, ";", "#X", 0, 72, 10, 139, 13, 14, 0, 0, ";", "#X", 139, 84, 9, 138, 13, 14, 0, 0, ";", "#X", 0, 72, 9, 138, 13, 14, 0, 0, ";", "#X", 0, 42, 100, 138, 1, 2, 0, 0, ";", "#X", 0, 38, 100, 138, 1, 2, 0, 0, ";", "#X", 138, 84, 9, 139, 13, 14, 0, 0, ";", "#X", 0, 72, 9, 139, 13, 14, 0, 0, ";", "#X", 139, 84, 9, 139, 13, 14, 0, 0, ";", "#X", 0, 72, 9, 139, 13, 14, 0, 0, ";", "#X", 139, 84, 8, 139, 13, 14, 0, 0, ";", "#X", 0, 72, 8, 139, 13, 14, 0, 0, ";", "#X", 139, 84, 8, 139, 13, 14, 0, 0, ";", "#X", 0, 72, 8, 139, 13, 14, 0, 0, ";", "#X", 0, 35, 100, 556, 1, 2, 0, 0, ";", "#X", 139, 84, 8, 139, 13, 14, 0, 0, ";", "#X", 0, 72, 8, 139, 13, 14, 0, 0, ";", "#X", 139, 84, 7, 139, 13, 14, 0, 0, ";", "#X", 0, 72, 7, 139, 13, 14, 0, 0, ";", "#X", 139, 84, 7, 139, 13, 14, 0, 0, ";", "#X", 0, 72, 7, 139, 13, 14, 0, 0, ";", "#X", 139, 72, 7, 139, 13, 14, 0, 0, ";", "#X", 0, 84, 7, 139, 13, 14, 0, 0, ";", "#X", 0, 40, 100, 139, 1, 2, 0, 0, ";", "#X", 0, 36, 100, 139, 1, 2, 0, 0, ";", "#X", 139, 72, 6, 138, 13, 14, 0, 0, ";", "#X", 0, 84, 6, 138, 13, 14, 0, 0, ";", "#X", 138, 84, 6, 139, 13, 14, 0, 0, ";", "#X", 0, 72, 6, 139, 13, 14, 0, 0, ";", "#X", 139, 84, 6, 139, 13, 14, 0, 0, ";", "#X", 0, 72, 6, 139, 13, 14, 0, 0, ";", "#X", 139, 72, 5, 139, 13, 14, 0, 0, ";", "#X", 0, 84, 5, 139, 13, 14, 0, 0, ";", "#X", 0, 39, 100, 556, 1, 2, 0, 0, ";", "#X", 0, 35, 100, 556, 1, 2, 0, 0, ";", "#X", 139, 84, 5, 139, 13, 14, 0, 0, ";", "#X", 0, 72, 5, 139, 13, 14, 0, 0, ";", "#X", 139, 84, 5, 139, 13, 14, 0, 0, ";", "#X", 0, 72, 5, 139, 13, 14, 0, 0, ";", "#X", 139, 84, 4, 139, 13, 14, 0, 0, ";", "#X", 0, 72, 4, 139, 13, 14, 0, 0, ";", "#X", 139, 84, 4, 139, 13, 14, 0, 0, ";", "#X", 0, 72, 4, 139, 13, 14, 0, 0, ";", "#X", 0, 42, 100, 139, 1, 2, 0, 0, ";", "#X", 0, 38, 100, 139, 1, 2, 0, 0, ";", "#X", 139, 72, 4, 139, 13, 14, 0, 0, ";", "#X", 0, 84, 4, 139, 13, 14, 0, 0, ";", "#X", 139, 72, 3, 138, 13, 14, 0, 0, ";", "#X", 0, 84, 3, 138, 13, 14, 0, 0, ";", "#X", 138, 84, 3, 139, 13, 14, 0, 0, ";", "#X", 0, 72, 3, 139, 13, 14, 0, 0, ";", "#X", 139, 84, 3, 139, 13, 14, 0, 0, ";", "#X", 0, 72, 3, 139, 13, 14, 0, 0, ";", "#X", 0, 35, 100, 556, 1, 2, 0, 0, ";", "#X", 139, 72, 3, 139, 13, 14, 0, 0, ";", "#X", 0, 84, 3, 139, 13, 14, 0, 0, ";", "#X", 139, 72, 2, 139, 13, 14, 0, 0, ";", "#X", 0, 84, 2, 139, 13, 14, 0, 0, ";", "#X", 139, 84, 2, 139, 13, 14, 0, 0, ";", "#X", 0, 72, 2, 139, 13, 14, 0, 0, ";", "#X", 139, 40, 100, 139, 1, 2, 0, 0, ";", "#X", 0, 36, 100, 139, 1, 2, 0, 0, ";", "#X", 555, 39, 100, 556, 1, 2, 0, 0, ";", "#X", 0, 35, 100, 556, 1, 2, 0, 0, ";", "#X", 556, 42, 100, 139, 1, 2, 0, 0, ";", "#X", 0, 38, 100, 139, 1, 2, 0, 0, ";", "#X", "stop", ";" ]
				}

			}
, 			{
				"box" : 				{
					"maxclass" : "newobj",
					"text" : "t b i",
					"numinlets" : 1,
					"fontsize" : 10.0,
					"numoutlets" : 2,
					"outlettype" : [ "bang", "int" ],
					"patching_rect" : [ 126.0, 118.0, 37.0, 18.0 ],
					"id" : "obj-9",
					"fontname" : "Arial"
				}

			}
 ],
		"lines" : [ 			{
				"patchline" : 				{
					"source" : [ "obj-71", 0 ],
					"destination" : [ "obj-66", 0 ],
					"hidden" : 0,
					"midpoints" : [  ]
				}

			}
, 			{
				"patchline" : 				{
					"source" : [ "obj-6", 0 ],
					"destination" : [ "obj-23", 0 ],
					"hidden" : 0,
					"midpoints" : [ 558.5, 629.0, 540.0, 629.0, 540.0, 385.0, 585.5, 385.0 ]
				}

			}
, 			{
				"patchline" : 				{
					"source" : [ "obj-47", 0 ],
					"destination" : [ "obj-6", 0 ],
					"hidden" : 0,
					"midpoints" : [  ]
				}

			}
, 			{
				"patchline" : 				{
					"source" : [ "obj-5", 3 ],
					"destination" : [ "obj-82", 0 ],
					"hidden" : 0,
					"midpoints" : [  ]
				}

			}
, 			{
				"patchline" : 				{
					"source" : [ "obj-5", 2 ],
					"destination" : [ "obj-25", 0 ],
					"hidden" : 0,
					"midpoints" : [  ]
				}

			}
, 			{
				"patchline" : 				{
					"source" : [ "obj-14", 0 ],
					"destination" : [ "obj-5", 0 ],
					"hidden" : 0,
					"midpoints" : [  ]
				}

			}
, 			{
				"patchline" : 				{
					"source" : [ "obj-5", 1 ],
					"destination" : [ "obj-17", 0 ],
					"hidden" : 0,
					"midpoints" : [  ]
				}

			}
, 			{
				"patchline" : 				{
					"source" : [ "obj-5", 0 ],
					"destination" : [ "obj-12", 0 ],
					"hidden" : 0,
					"midpoints" : [  ]
				}

			}
, 			{
				"patchline" : 				{
					"source" : [ "obj-41", 0 ],
					"destination" : [ "obj-23", 0 ],
					"hidden" : 0,
					"midpoints" : [ 673.5, 374.5, 585.5, 374.5 ]
				}

			}
, 			{
				"patchline" : 				{
					"source" : [ "obj-72", 0 ],
					"destination" : [ "obj-35", 0 ],
					"hidden" : 0,
					"midpoints" : [  ]
				}

			}
, 			{
				"patchline" : 				{
					"source" : [ "obj-32", 0 ],
					"destination" : [ "obj-72", 0 ],
					"hidden" : 0,
					"midpoints" : [  ]
				}

			}
, 			{
				"patchline" : 				{
					"source" : [ "obj-22", 0 ],
					"destination" : [ "obj-35", 1 ],
					"hidden" : 0,
					"midpoints" : [  ]
				}

			}
, 			{
				"patchline" : 				{
					"source" : [ "obj-22", 0 ],
					"destination" : [ "obj-42", 1 ],
					"hidden" : 0,
					"midpoints" : [  ]
				}

			}
, 			{
				"patchline" : 				{
					"source" : [ "obj-22", 0 ],
					"destination" : [ "obj-40", 1 ],
					"hidden" : 0,
					"midpoints" : [  ]
				}

			}
, 			{
				"patchline" : 				{
					"source" : [ "obj-53", 0 ],
					"destination" : [ "obj-32", 1 ],
					"hidden" : 0,
					"midpoints" : [  ]
				}

			}
, 			{
				"patchline" : 				{
					"source" : [ "obj-52", 0 ],
					"destination" : [ "obj-53", 0 ],
					"hidden" : 0,
					"midpoints" : [  ]
				}

			}
, 			{
				"patchline" : 				{
					"source" : [ "obj-22", 0 ],
					"destination" : [ "obj-26", 1 ],
					"hidden" : 0,
					"midpoints" : [  ]
				}

			}
, 			{
				"patchline" : 				{
					"source" : [ "obj-28", 0 ],
					"destination" : [ "obj-22", 0 ],
					"hidden" : 0,
					"midpoints" : [  ]
				}

			}
, 			{
				"patchline" : 				{
					"source" : [ "obj-40", 0 ],
					"destination" : [ "obj-42", 0 ],
					"hidden" : 0,
					"midpoints" : [  ]
				}

			}
, 			{
				"patchline" : 				{
					"source" : [ "obj-42", 0 ],
					"destination" : [ "obj-34", 1 ],
					"hidden" : 0,
					"midpoints" : [  ]
				}

			}
, 			{
				"patchline" : 				{
					"source" : [ "obj-8", 0 ],
					"destination" : [ "obj-56", 1 ],
					"hidden" : 0,
					"midpoints" : [ 135.5, 111.0, 440.0, 111.0, 440.0, 226.0, 476.0, 226.0 ]
				}

			}
, 			{
				"patchline" : 				{
					"source" : [ "obj-51", 0 ],
					"destination" : [ "obj-47", 0 ],
					"hidden" : 0,
					"midpoints" : [  ]
				}

			}
, 			{
				"patchline" : 				{
					"source" : [ "obj-50", 0 ],
					"destination" : [ "obj-51", 0 ],
					"hidden" : 0,
					"midpoints" : [  ]
				}

			}
, 			{
				"patchline" : 				{
					"source" : [ "obj-45", 0 ],
					"destination" : [ "obj-51", 1 ],
					"hidden" : 0,
					"midpoints" : [  ]
				}

			}
, 			{
				"patchline" : 				{
					"source" : [ "obj-50", 1 ],
					"destination" : [ "obj-46", 1 ],
					"hidden" : 0,
					"midpoints" : [  ]
				}

			}
, 			{
				"patchline" : 				{
					"source" : [ "obj-44", 0 ],
					"destination" : [ "obj-50", 0 ],
					"hidden" : 0,
					"midpoints" : [  ]
				}

			}
, 			{
				"patchline" : 				{
					"source" : [ "obj-46", 0 ],
					"destination" : [ "obj-33", 0 ],
					"hidden" : 0,
					"midpoints" : [  ]
				}

			}
, 			{
				"patchline" : 				{
					"source" : [ "obj-45", 0 ],
					"destination" : [ "obj-46", 0 ],
					"hidden" : 0,
					"midpoints" : [  ]
				}

			}
, 			{
				"patchline" : 				{
					"source" : [ "obj-43", 0 ],
					"destination" : [ "obj-45", 1 ],
					"hidden" : 0,
					"midpoints" : [  ]
				}

			}
, 			{
				"patchline" : 				{
					"source" : [ "obj-44", 1 ],
					"destination" : [ "obj-45", 0 ],
					"hidden" : 0,
					"midpoints" : [  ]
				}

			}
, 			{
				"patchline" : 				{
					"source" : [ "obj-44", 2 ],
					"destination" : [ "obj-43", 0 ],
					"hidden" : 0,
					"midpoints" : [ 655.5, 469.0, 634.5, 469.0 ]
				}

			}
, 			{
				"patchline" : 				{
					"source" : [ "obj-34", 0 ],
					"destination" : [ "obj-20", 0 ],
					"hidden" : 0,
					"midpoints" : [ 425.5, 536.0, 369.0, 536.0, 369.0, 386.0, 462.5, 386.0 ]
				}

			}
, 			{
				"patchline" : 				{
					"source" : [ "obj-34", 0 ],
					"destination" : [ "obj-23", 0 ],
					"hidden" : 0,
					"midpoints" : [  ]
				}

			}
, 			{
				"patchline" : 				{
					"source" : [ "obj-36", 0 ],
					"destination" : [ "obj-34", 0 ],
					"hidden" : 0,
					"midpoints" : [  ]
				}

			}
, 			{
				"patchline" : 				{
					"source" : [ "obj-20", 0 ],
					"destination" : [ "obj-31", 0 ],
					"hidden" : 0,
					"midpoints" : [  ]
				}

			}
, 			{
				"patchline" : 				{
					"source" : [ "obj-29", 0 ],
					"destination" : [ "obj-23", 0 ],
					"hidden" : 0,
					"midpoints" : [  ]
				}

			}
, 			{
				"patchline" : 				{
					"source" : [ "obj-29", 0 ],
					"destination" : [ "obj-20", 0 ],
					"hidden" : 0,
					"midpoints" : [  ]
				}

			}
, 			{
				"patchline" : 				{
					"source" : [ "obj-27", 0 ],
					"destination" : [ "obj-20", 0 ],
					"hidden" : 0,
					"midpoints" : [ 651.5, 374.0, 462.5, 374.0 ]
				}

			}
, 			{
				"patchline" : 				{
					"source" : [ "obj-27", 0 ],
					"destination" : [ "obj-23", 0 ],
					"hidden" : 0,
					"midpoints" : [ 651.5, 374.5, 585.5, 374.5 ]
				}

			}
, 			{
				"patchline" : 				{
					"source" : [ "obj-13", 0 ],
					"destination" : [ "obj-8", 0 ],
					"hidden" : 0,
					"midpoints" : [  ]
				}

			}
, 			{
				"patchline" : 				{
					"source" : [ "obj-12", 0 ],
					"destination" : [ "obj-8", 0 ],
					"hidden" : 0,
					"midpoints" : [  ]
				}

			}
, 			{
				"patchline" : 				{
					"source" : [ "obj-17", 0 ],
					"destination" : [ "obj-18", 0 ],
					"hidden" : 0,
					"midpoints" : [  ]
				}

			}
, 			{
				"patchline" : 				{
					"source" : [ "obj-18", 0 ],
					"destination" : [ "obj-10", 0 ],
					"hidden" : 0,
					"midpoints" : [ 47.5, 224.0, 28.0, 224.0, 28.0, 56.0, 96.5, 56.0 ]
				}

			}
, 			{
				"patchline" : 				{
					"source" : [ "obj-10", 0 ],
					"destination" : [ "obj-8", 0 ],
					"hidden" : 0,
					"midpoints" : [ 96.5, 85.0, 135.5, 85.0 ]
				}

			}
, 			{
				"patchline" : 				{
					"source" : [ "obj-8", 0 ],
					"destination" : [ "obj-9", 0 ],
					"hidden" : 0,
					"midpoints" : [  ]
				}

			}
, 			{
				"patchline" : 				{
					"source" : [ "obj-1", 0 ],
					"destination" : [ "obj-2", 0 ],
					"hidden" : 0,
					"midpoints" : [  ]
				}

			}
, 			{
				"patchline" : 				{
					"source" : [ "obj-2", 0 ],
					"destination" : [ "obj-3", 1 ],
					"hidden" : 0,
					"midpoints" : [  ]
				}

			}
, 			{
				"patchline" : 				{
					"source" : [ "obj-4", 0 ],
					"destination" : [ "obj-3", 0 ],
					"hidden" : 0,
					"midpoints" : [  ]
				}

			}
, 			{
				"patchline" : 				{
					"source" : [ "obj-4", 1 ],
					"destination" : [ "obj-1", 0 ],
					"hidden" : 0,
					"midpoints" : [  ]
				}

			}
, 			{
				"patchline" : 				{
					"source" : [ "obj-23", 0 ],
					"destination" : [ "obj-11", 0 ],
					"hidden" : 0,
					"midpoints" : [  ]
				}

			}
, 			{
				"patchline" : 				{
					"source" : [ "obj-11", 0 ],
					"destination" : [ "obj-44", 0 ],
					"hidden" : 0,
					"midpoints" : [  ]
				}

			}
, 			{
				"patchline" : 				{
					"source" : [ "obj-25", 0 ],
					"destination" : [ "obj-21", 0 ],
					"hidden" : 0,
					"midpoints" : [  ]
				}

			}
, 			{
				"patchline" : 				{
					"source" : [ "obj-25", 0 ],
					"destination" : [ "obj-29", 0 ],
					"hidden" : 0,
					"midpoints" : [  ]
				}

			}
, 			{
				"patchline" : 				{
					"source" : [ "obj-21", 0 ],
					"destination" : [ "obj-1", 0 ],
					"hidden" : 0,
					"midpoints" : [ 600.5, 242.0, 575.5, 242.0 ]
				}

			}
, 			{
				"patchline" : 				{
					"source" : [ "obj-57", 0 ],
					"destination" : [ "obj-4", 0 ],
					"hidden" : 0,
					"midpoints" : [  ]
				}

			}
, 			{
				"patchline" : 				{
					"source" : [ "obj-3", 0 ],
					"destination" : [ "obj-24", 0 ],
					"hidden" : 0,
					"midpoints" : [ 561.5, 325.0, 585.5, 325.0 ]
				}

			}
, 			{
				"patchline" : 				{
					"source" : [ "obj-24", 0 ],
					"destination" : [ "obj-23", 0 ],
					"hidden" : 0,
					"midpoints" : [  ]
				}

			}
, 			{
				"patchline" : 				{
					"source" : [ "obj-29", 0 ],
					"destination" : [ "obj-24", 0 ],
					"hidden" : 0,
					"midpoints" : [  ]
				}

			}
, 			{
				"patchline" : 				{
					"source" : [ "obj-56", 0 ],
					"destination" : [ "obj-26", 0 ],
					"hidden" : 0,
					"midpoints" : [  ]
				}

			}
, 			{
				"patchline" : 				{
					"source" : [ "obj-26", 0 ],
					"destination" : [ "obj-19", 0 ],
					"hidden" : 0,
					"midpoints" : [  ]
				}

			}
, 			{
				"patchline" : 				{
					"source" : [ "obj-19", 0 ],
					"destination" : [ "obj-20", 0 ],
					"hidden" : 0,
					"midpoints" : [  ]
				}

			}
, 			{
				"patchline" : 				{
					"source" : [ "obj-29", 0 ],
					"destination" : [ "obj-19", 0 ],
					"hidden" : 0,
					"midpoints" : [  ]
				}

			}
, 			{
				"patchline" : 				{
					"source" : [ "obj-31", 0 ],
					"destination" : [ "obj-40", 0 ],
					"hidden" : 0,
					"midpoints" : [  ]
				}

			}
, 			{
				"patchline" : 				{
					"source" : [ "obj-8", 1 ],
					"destination" : [ "obj-30", 0 ],
					"hidden" : 0,
					"midpoints" : [ 176.928574, 138.0, 575.5, 138.0 ]
				}

			}
, 			{
				"patchline" : 				{
					"source" : [ "obj-8", 2 ],
					"destination" : [ "obj-30", 1 ],
					"hidden" : 0,
					"midpoints" : [ 218.357147, 138.0, 605.5, 138.0 ]
				}

			}
, 			{
				"patchline" : 				{
					"source" : [ "obj-30", 0 ],
					"destination" : [ "obj-57", 1 ],
					"hidden" : 0,
					"midpoints" : [  ]
				}

			}
, 			{
				"patchline" : 				{
					"source" : [ "obj-33", 0 ],
					"destination" : [ "obj-39", 0 ],
					"hidden" : 0,
					"midpoints" : [ 620.5, 577.0, 671.0, 577.0, 671.0, 475.0, 694.5, 475.0 ]
				}

			}
, 			{
				"patchline" : 				{
					"source" : [ "obj-39", 0 ],
					"destination" : [ "obj-32", 0 ],
					"hidden" : 0,
					"midpoints" : [  ]
				}

			}
, 			{
				"patchline" : 				{
					"source" : [ "obj-35", 0 ],
					"destination" : [ "obj-37", 2 ],
					"hidden" : 0,
					"midpoints" : [  ]
				}

			}
, 			{
				"patchline" : 				{
					"source" : [ "obj-33", 0 ],
					"destination" : [ "obj-37", 0 ],
					"hidden" : 0,
					"midpoints" : [  ]
				}

			}
, 			{
				"patchline" : 				{
					"source" : [ "obj-23", 1 ],
					"destination" : [ "obj-61", 0 ],
					"hidden" : 0,
					"midpoints" : [  ]
				}

			}
, 			{
				"patchline" : 				{
					"source" : [ "obj-66", 0 ],
					"destination" : [ "obj-23", 0 ],
					"hidden" : 0,
					"midpoints" : [ 768.5, 386.0, 585.5, 386.0 ]
				}

			}
, 			{
				"patchline" : 				{
					"source" : [ "obj-71", 0 ],
					"destination" : [ "obj-23", 0 ],
					"hidden" : 0,
					"midpoints" : [ 715.5, 374.5, 585.5, 374.5 ]
				}

			}
, 			{
				"patchline" : 				{
					"source" : [ "obj-77", 0 ],
					"destination" : [ "obj-48", 0 ],
					"hidden" : 0,
					"midpoints" : [  ]
				}

			}
, 			{
				"patchline" : 				{
					"source" : [ "obj-48", 0 ],
					"destination" : [ "obj-77", 1 ],
					"hidden" : 0,
					"midpoints" : [ 134.5, 395.0, 85.0, 395.0, 85.0, 317.0, 151.5, 317.0 ]
				}

			}
, 			{
				"patchline" : 				{
					"source" : [ "obj-8", 4 ],
					"destination" : [ "obj-77", 0 ],
					"hidden" : 0,
					"midpoints" : [  ]
				}

			}
, 			{
				"patchline" : 				{
					"source" : [ "obj-48", 0 ],
					"destination" : [ "obj-80", 0 ],
					"hidden" : 0,
					"midpoints" : [  ]
				}

			}
, 			{
				"patchline" : 				{
					"source" : [ "obj-80", 0 ],
					"destination" : [ "obj-79", 1 ],
					"hidden" : 0,
					"midpoints" : [  ]
				}

			}
, 			{
				"patchline" : 				{
					"source" : [ "obj-82", 0 ],
					"destination" : [ "obj-77", 0 ],
					"hidden" : 0,
					"midpoints" : [  ]
				}

			}
, 			{
				"patchline" : 				{
					"source" : [ "obj-37", 1 ],
					"destination" : [ "obj-83", 1 ],
					"hidden" : 0,
					"midpoints" : [  ]
				}

			}
, 			{
				"patchline" : 				{
					"source" : [ "obj-37", 0 ],
					"destination" : [ "obj-83", 0 ],
					"hidden" : 0,
					"midpoints" : [  ]
				}

			}
, 			{
				"patchline" : 				{
					"source" : [ "obj-7", 0 ],
					"destination" : [ "obj-18", 1 ],
					"hidden" : 0,
					"midpoints" : [  ]
				}

			}
, 			{
				"patchline" : 				{
					"source" : [ "obj-9", 0 ],
					"destination" : [ "obj-7", 0 ],
					"hidden" : 0,
					"midpoints" : [  ]
				}

			}
, 			{
				"patchline" : 				{
					"source" : [ "obj-55", 0 ],
					"destination" : [ "obj-57", 0 ],
					"hidden" : 0,
					"midpoints" : [ 462.5, 185.0, 561.5, 185.0 ]
				}

			}
, 			{
				"patchline" : 				{
					"source" : [ "obj-55", 0 ],
					"destination" : [ "obj-56", 0 ],
					"hidden" : 0,
					"midpoints" : [  ]
				}

			}
, 			{
				"patchline" : 				{
					"source" : [ "obj-8", 4 ],
					"destination" : [ "obj-55", 0 ],
					"hidden" : 0,
					"midpoints" : [ 301.214294, 131.0, 462.5, 131.0 ]
				}

			}
, 			{
				"patchline" : 				{
					"source" : [ "obj-38", 0 ],
					"destination" : [ "obj-55", 1 ],
					"hidden" : 0,
					"midpoints" : [  ]
				}

			}
 ]
	}

}
