{
	"patcher" : 	{
		"fileversion" : 1,
		"rect" : [ 25.0, 69.0, 873.0, 595.0 ],
		"bglocked" : 0,
		"defrect" : [ 25.0, 69.0, 873.0, 595.0 ],
		"openrect" : [ 0.0, 0.0, 0.0, 0.0 ],
		"openinpresentation" : 0,
		"default_fontsize" : 10.0,
		"default_fontface" : 0,
		"default_fontname" : "Arial",
		"gridonopen" : 0,
		"gridsize" : [ 15.0, 15.0 ],
		"gridsnaponopen" : 0,
		"toolbarvisible" : 1,
		"boxanimatetime" : 200,
		"imprint" : 0,
		"enablehscroll" : 1,
		"enablevscroll" : 1,
		"devicewidth" : 0.0,
		"boxes" : [ 			{
				"box" : 				{
					"maxclass" : "newobj",
					"text" : "r prob",
					"numoutlets" : 1,
					"fontsize" : 10.0,
					"outlettype" : [ "" ],
					"patching_rect" : [ 662.0, 304.0, 37.0, 18.0 ],
					"id" : "obj-12",
					"fontname" : "Arial",
					"numinlets" : 0
				}

			}
, 			{
				"box" : 				{
					"maxclass" : "newobj",
					"text" : "out 1",
					"numoutlets" : 0,
					"fontsize" : 10.0,
					"patching_rect" : [ 451.0, 609.0, 33.0, 18.0 ],
					"id" : "obj-10",
					"fontname" : "Arial",
					"numinlets" : 1,
					"saved_object_attributes" : 					{
						"attr_comment" : ""
					}

				}

			}
, 			{
				"box" : 				{
					"maxclass" : "newobj",
					"text" : "r start",
					"numoutlets" : 1,
					"fontsize" : 10.0,
					"outlettype" : [ "" ],
					"patching_rect" : [ 257.0, 422.0, 36.0, 18.0 ],
					"id" : "obj-9",
					"fontname" : "Arial",
					"numinlets" : 0
				}

			}
, 			{
				"box" : 				{
					"maxclass" : "newobj",
					"text" : "r quantile",
					"numoutlets" : 1,
					"fontsize" : 10.0,
					"outlettype" : [ "" ],
					"patching_rect" : [ 742.0, 401.0, 52.0, 18.0 ],
					"id" : "obj-8",
					"fontname" : "Arial",
					"numinlets" : 0
				}

			}
, 			{
				"box" : 				{
					"maxclass" : "newobj",
					"text" : "in 4",
					"numoutlets" : 1,
					"fontsize" : 10.0,
					"outlettype" : [ "" ],
					"patching_rect" : [ 673.0, 193.0, 27.0, 18.0 ],
					"id" : "obj-7",
					"fontname" : "Arial",
					"numinlets" : 1,
					"saved_object_attributes" : 					{
						"attr_comment" : ""
					}

				}

			}
, 			{
				"box" : 				{
					"maxclass" : "newobj",
					"text" : "in 3",
					"numoutlets" : 1,
					"fontsize" : 10.0,
					"outlettype" : [ "" ],
					"patching_rect" : [ 586.0, 193.0, 27.0, 18.0 ],
					"id" : "obj-6",
					"fontname" : "Arial",
					"numinlets" : 1,
					"saved_object_attributes" : 					{
						"attr_comment" : ""
					}

				}

			}
, 			{
				"box" : 				{
					"maxclass" : "comment",
					"text" : "play",
					"numoutlets" : 0,
					"fontsize" : 10.0,
					"patching_rect" : [ 344.0, 495.0, 29.0, 18.0 ],
					"id" : "obj-74",
					"fontname" : "Arial",
					"numinlets" : 1
				}

			}
, 			{
				"box" : 				{
					"maxclass" : "newobj",
					"text" : "+ 1",
					"numoutlets" : 1,
					"fontsize" : 10.0,
					"outlettype" : [ "int" ],
					"patching_rect" : [ 646.0, 530.0, 32.5, 18.0 ],
					"id" : "obj-72",
					"fontname" : "Arial",
					"numinlets" : 2
				}

			}
, 			{
				"box" : 				{
					"maxclass" : "button",
					"numoutlets" : 1,
					"outlettype" : [ "bang" ],
					"patching_rect" : [ 582.0, 419.0, 20.0, 20.0 ],
					"id" : "obj-61",
					"numinlets" : 1
				}

			}
, 			{
				"box" : 				{
					"maxclass" : "button",
					"numoutlets" : 1,
					"outlettype" : [ "bang" ],
					"patching_rect" : [ 646.0, 480.0, 20.0, 20.0 ],
					"id" : "obj-39",
					"numinlets" : 1
				}

			}
, 			{
				"box" : 				{
					"maxclass" : "newobj",
					"text" : "* 125",
					"numoutlets" : 1,
					"fontsize" : 10.0,
					"outlettype" : [ "int" ],
					"patching_rect" : [ 646.0, 560.0, 34.0, 18.0 ],
					"id" : "obj-35",
					"fontname" : "Arial",
					"numinlets" : 2
				}

			}
, 			{
				"box" : 				{
					"maxclass" : "newobj",
					"text" : "random 10",
					"numoutlets" : 1,
					"fontsize" : 10.0,
					"outlettype" : [ "int" ],
					"patching_rect" : [ 646.0, 506.0, 58.0, 18.0 ],
					"id" : "obj-32",
					"fontname" : "Arial",
					"numinlets" : 2
				}

			}
, 			{
				"box" : 				{
					"maxclass" : "newobj",
					"text" : "/ 125",
					"numoutlets" : 1,
					"fontsize" : 10.0,
					"outlettype" : [ "int" ],
					"patching_rect" : [ 414.0, 270.0, 33.0, 18.0 ],
					"id" : "obj-26",
					"fontname" : "Arial",
					"numinlets" : 2
				}

			}
, 			{
				"box" : 				{
					"maxclass" : "message",
					"text" : "set 0",
					"numoutlets" : 1,
					"fontsize" : 10.0,
					"outlettype" : [ "" ],
					"patching_rect" : [ 552.0, 225.0, 32.5, 16.0 ],
					"id" : "obj-21",
					"fontname" : "Arial",
					"numinlets" : 2
				}

			}
, 			{
				"box" : 				{
					"maxclass" : "newobj",
					"text" : "% 128",
					"numoutlets" : 1,
					"fontsize" : 10.0,
					"outlettype" : [ "int" ],
					"patching_rect" : [ 537.0, 419.0, 39.0, 18.0 ],
					"id" : "obj-11",
					"fontname" : "Arial",
					"numinlets" : 2
				}

			}
, 			{
				"box" : 				{
					"maxclass" : "newobj",
					"text" : "t i i",
					"numoutlets" : 2,
					"fontsize" : 10.0,
					"outlettype" : [ "int", "int" ],
					"patching_rect" : [ 513.0, 225.0, 32.5, 18.0 ],
					"id" : "obj-4",
					"fontname" : "Arial",
					"numinlets" : 1
				}

			}
, 			{
				"box" : 				{
					"maxclass" : "newobj",
					"text" : "+",
					"numoutlets" : 1,
					"fontsize" : 10.0,
					"outlettype" : [ "int" ],
					"patching_rect" : [ 513.0, 295.0, 32.5, 18.0 ],
					"id" : "obj-3",
					"fontname" : "Arial",
					"numinlets" : 2
				}

			}
, 			{
				"box" : 				{
					"maxclass" : "newobj",
					"text" : "<< 7",
					"numoutlets" : 1,
					"fontsize" : 10.0,
					"outlettype" : [ "int" ],
					"patching_rect" : [ 527.0, 271.0, 32.5, 18.0 ],
					"id" : "obj-2",
					"fontname" : "Arial",
					"numinlets" : 2
				}

			}
, 			{
				"box" : 				{
					"maxclass" : "newobj",
					"text" : "bucket",
					"numoutlets" : 1,
					"fontsize" : 10.0,
					"outlettype" : [ "" ],
					"patching_rect" : [ 527.0, 248.0, 40.0, 18.0 ],
					"id" : "obj-1",
					"fontname" : "Arial",
					"numinlets" : 1
				}

			}
, 			{
				"box" : 				{
					"maxclass" : "message",
					"text" : "note $1 $2 1",
					"numoutlets" : 1,
					"fontsize" : 10.0,
					"outlettype" : [ "" ],
					"patching_rect" : [ 572.0, 647.0, 66.0, 16.0 ],
					"id" : "obj-67",
					"fontname" : "Arial",
					"numinlets" : 2
				}

			}
, 			{
				"box" : 				{
					"maxclass" : "newobj",
					"text" : "pack 0 0",
					"numoutlets" : 1,
					"fontsize" : 10.0,
					"outlettype" : [ "" ],
					"patching_rect" : [ 572.0, 621.0, 93.0, 18.0 ],
					"id" : "obj-64",
					"fontname" : "Arial",
					"numinlets" : 2
				}

			}
, 			{
				"box" : 				{
					"maxclass" : "newobj",
					"text" : "in 2",
					"numoutlets" : 1,
					"fontsize" : 10.0,
					"outlettype" : [ "" ],
					"patching_rect" : [ 513.0, 200.0, 27.0, 18.0 ],
					"id" : "obj-57",
					"fontname" : "Arial",
					"numinlets" : 1,
					"saved_object_attributes" : 					{
						"attr_comment" : ""
					}

				}

			}
, 			{
				"box" : 				{
					"maxclass" : "newobj",
					"text" : "in 1",
					"numoutlets" : 1,
					"fontsize" : 10.0,
					"outlettype" : [ "" ],
					"patching_rect" : [ 414.0, 243.0, 27.0, 18.0 ],
					"id" : "obj-56",
					"fontname" : "Arial",
					"numinlets" : 1,
					"saved_object_attributes" : 					{
						"attr_comment" : ""
					}

				}

			}
, 			{
				"box" : 				{
					"maxclass" : "newobj",
					"text" : "i",
					"numoutlets" : 1,
					"fontsize" : 10.0,
					"outlettype" : [ "int" ],
					"patching_rect" : [ 537.0, 529.0, 32.5, 18.0 ],
					"id" : "obj-51",
					"fontname" : "Arial",
					"numinlets" : 2
				}

			}
, 			{
				"box" : 				{
					"maxclass" : "newobj",
					"text" : "t b i",
					"numoutlets" : 2,
					"fontsize" : 10.0,
					"outlettype" : [ "bang", "int" ],
					"patching_rect" : [ 537.0, 499.0, 32.5, 18.0 ],
					"id" : "obj-50",
					"fontname" : "Arial",
					"numinlets" : 1
				}

			}
, 			{
				"box" : 				{
					"maxclass" : "newobj",
					"text" : "sel 0",
					"numoutlets" : 2,
					"fontsize" : 10.0,
					"outlettype" : [ "bang", "" ],
					"patching_rect" : [ 537.0, 560.0, 32.5, 18.0 ],
					"id" : "obj-47",
					"fontname" : "Arial",
					"numinlets" : 2
				}

			}
, 			{
				"box" : 				{
					"maxclass" : "newobj",
					"text" : "gate",
					"numoutlets" : 1,
					"fontsize" : 10.0,
					"outlettype" : [ "" ],
					"patching_rect" : [ 572.0, 528.0, 32.5, 18.0 ],
					"id" : "obj-46",
					"fontname" : "Arial",
					"numinlets" : 2
				}

			}
, 			{
				"box" : 				{
					"maxclass" : "newobj",
					"text" : "!=",
					"numoutlets" : 1,
					"fontsize" : 10.0,
					"outlettype" : [ "int" ],
					"patching_rect" : [ 572.0, 499.0, 32.5, 18.0 ],
					"id" : "obj-45",
					"fontname" : "Arial",
					"numinlets" : 2
				}

			}
, 			{
				"box" : 				{
					"maxclass" : "newobj",
					"text" : "t i i i",
					"numoutlets" : 3,
					"fontsize" : 10.0,
					"outlettype" : [ "int", "int", "int" ],
					"patching_rect" : [ 537.0, 450.0, 89.0, 18.0 ],
					"id" : "obj-44",
					"fontname" : "Arial",
					"numinlets" : 1
				}

			}
, 			{
				"box" : 				{
					"maxclass" : "newobj",
					"text" : "bucket",
					"numoutlets" : 1,
					"fontsize" : 10.0,
					"outlettype" : [ "" ],
					"patching_rect" : [ 586.0, 475.0, 40.0, 18.0 ],
					"id" : "obj-43",
					"fontname" : "Arial",
					"numinlets" : 1
				}

			}
, 			{
				"box" : 				{
					"maxclass" : "newobj",
					"text" : "+ 125",
					"numoutlets" : 1,
					"fontsize" : 10.0,
					"outlettype" : [ "int" ],
					"patching_rect" : [ 414.0, 495.0, 36.0, 18.0 ],
					"id" : "obj-42",
					"fontname" : "Arial",
					"numinlets" : 2
				}

			}
, 			{
				"box" : 				{
					"maxclass" : "newobj",
					"text" : "* 125",
					"numoutlets" : 1,
					"fontsize" : 10.0,
					"outlettype" : [ "int" ],
					"patching_rect" : [ 414.0, 460.0, 34.0, 18.0 ],
					"id" : "obj-40",
					"fontname" : "Arial",
					"numinlets" : 2
				}

			}
, 			{
				"box" : 				{
					"maxclass" : "newobj",
					"text" : "makenote 100 250",
					"numoutlets" : 2,
					"fontsize" : 10.0,
					"outlettype" : [ "float", "float" ],
					"patching_rect" : [ 572.0, 593.0, 93.0, 18.0 ],
					"id" : "obj-37",
					"fontname" : "Arial",
					"numinlets" : 3
				}

			}
, 			{
				"box" : 				{
					"maxclass" : "toggle",
					"numoutlets" : 1,
					"outlettype" : [ "int" ],
					"patching_rect" : [ 377.0, 495.0, 20.0, 20.0 ],
					"id" : "obj-36",
					"numinlets" : 1
				}

			}
, 			{
				"box" : 				{
					"maxclass" : "newobj",
					"text" : "metro 250",
					"numoutlets" : 1,
					"fontsize" : 10.0,
					"outlettype" : [ "bang" ],
					"patching_rect" : [ 377.0, 520.0, 56.0, 18.0 ],
					"id" : "obj-34",
					"fontname" : "Arial",
					"numinlets" : 2
				}

			}
, 			{
				"box" : 				{
					"maxclass" : "number",
					"numoutlets" : 2,
					"fontsize" : 10.0,
					"outlettype" : [ "int", "bang" ],
					"patching_rect" : [ 572.0, 560.0, 50.0, 18.0 ],
					"id" : "obj-33",
					"fontname" : "Arial",
					"numinlets" : 1
				}

			}
, 			{
				"box" : 				{
					"maxclass" : "number",
					"numoutlets" : 2,
					"fontsize" : 10.0,
					"outlettype" : [ "int", "bang" ],
					"patching_rect" : [ 414.0, 421.0, 50.0, 18.0 ],
					"id" : "obj-31",
					"fontname" : "Arial",
					"numinlets" : 1
				}

			}
, 			{
				"box" : 				{
					"maxclass" : "message",
					"text" : "clear",
					"numoutlets" : 1,
					"fontsize" : 10.0,
					"outlettype" : [ "" ],
					"patching_rect" : [ 592.0, 225.0, 32.5, 16.0 ],
					"id" : "obj-29",
					"fontname" : "Arial",
					"numinlets" : 2
				}

			}
, 			{
				"box" : 				{
					"maxclass" : "newobj",
					"text" : "prob",
					"numoutlets" : 2,
					"fontsize" : 10.0,
					"outlettype" : [ "int", "bang" ],
					"patching_rect" : [ 537.0, 394.0, 63.5, 18.0 ],
					"id" : "obj-23",
					"fontname" : "Arial",
					"numinlets" : 1,
					"save" : [ "#N", "prob", ";" ]
				}

			}
, 			{
				"box" : 				{
					"maxclass" : "newobj",
					"text" : "anal 16384",
					"numoutlets" : 1,
					"fontsize" : 10.0,
					"outlettype" : [ "list" ],
					"patching_rect" : [ 537.0, 342.0, 60.0, 18.0 ],
					"id" : "obj-24",
					"fontname" : "Arial",
					"numinlets" : 1
				}

			}
, 			{
				"box" : 				{
					"maxclass" : "newobj",
					"text" : "prob",
					"numoutlets" : 2,
					"fontsize" : 10.0,
					"outlettype" : [ "int", "bang" ],
					"patching_rect" : [ 414.0, 392.0, 32.5, 18.0 ],
					"id" : "obj-20",
					"fontname" : "Arial",
					"numinlets" : 1,
					"save" : [ "#N", "prob", ";" ]
				}

			}
, 			{
				"box" : 				{
					"maxclass" : "newobj",
					"text" : "anal 50",
					"numoutlets" : 1,
					"fontsize" : 10.0,
					"outlettype" : [ "list" ],
					"patching_rect" : [ 414.0, 342.0, 43.0, 18.0 ],
					"id" : "obj-19",
					"fontname" : "Arial",
					"numinlets" : 1
				}

			}
 ],
		"lines" : [ 			{
				"patchline" : 				{
					"source" : [ "obj-12", 0 ],
					"destination" : [ "obj-23", 0 ],
					"hidden" : 0,
					"midpoints" : [  ]
				}

			}
, 			{
				"patchline" : 				{
					"source" : [ "obj-8", 0 ],
					"destination" : [ "obj-26", 1 ],
					"hidden" : 0,
					"midpoints" : [  ]
				}

			}
, 			{
				"patchline" : 				{
					"source" : [ "obj-8", 0 ],
					"destination" : [ "obj-35", 1 ],
					"hidden" : 0,
					"midpoints" : [  ]
				}

			}
, 			{
				"patchline" : 				{
					"source" : [ "obj-8", 0 ],
					"destination" : [ "obj-42", 1 ],
					"hidden" : 0,
					"midpoints" : [  ]
				}

			}
, 			{
				"patchline" : 				{
					"source" : [ "obj-8", 0 ],
					"destination" : [ "obj-40", 1 ],
					"hidden" : 0,
					"midpoints" : [  ]
				}

			}
, 			{
				"patchline" : 				{
					"source" : [ "obj-67", 0 ],
					"destination" : [ "obj-10", 0 ],
					"hidden" : 0,
					"midpoints" : [  ]
				}

			}
, 			{
				"patchline" : 				{
					"source" : [ "obj-9", 0 ],
					"destination" : [ "obj-36", 0 ],
					"hidden" : 0,
					"midpoints" : [  ]
				}

			}
, 			{
				"patchline" : 				{
					"source" : [ "obj-7", 0 ],
					"destination" : [ "obj-23", 0 ],
					"hidden" : 0,
					"midpoints" : [  ]
				}

			}
, 			{
				"patchline" : 				{
					"source" : [ "obj-6", 0 ],
					"destination" : [ "obj-29", 0 ],
					"hidden" : 0,
					"midpoints" : [  ]
				}

			}
, 			{
				"patchline" : 				{
					"source" : [ "obj-6", 0 ],
					"destination" : [ "obj-21", 0 ],
					"hidden" : 0,
					"midpoints" : [  ]
				}

			}
, 			{
				"patchline" : 				{
					"source" : [ "obj-57", 0 ],
					"destination" : [ "obj-4", 0 ],
					"hidden" : 0,
					"midpoints" : [  ]
				}

			}
, 			{
				"patchline" : 				{
					"source" : [ "obj-56", 0 ],
					"destination" : [ "obj-26", 0 ],
					"hidden" : 0,
					"midpoints" : [  ]
				}

			}
, 			{
				"patchline" : 				{
					"source" : [ "obj-72", 0 ],
					"destination" : [ "obj-35", 0 ],
					"hidden" : 0,
					"midpoints" : [  ]
				}

			}
, 			{
				"patchline" : 				{
					"source" : [ "obj-32", 0 ],
					"destination" : [ "obj-72", 0 ],
					"hidden" : 0,
					"midpoints" : [  ]
				}

			}
, 			{
				"patchline" : 				{
					"source" : [ "obj-64", 0 ],
					"destination" : [ "obj-67", 0 ],
					"hidden" : 0,
					"midpoints" : [  ]
				}

			}
, 			{
				"patchline" : 				{
					"source" : [ "obj-40", 0 ],
					"destination" : [ "obj-42", 0 ],
					"hidden" : 0,
					"midpoints" : [  ]
				}

			}
, 			{
				"patchline" : 				{
					"source" : [ "obj-42", 0 ],
					"destination" : [ "obj-34", 1 ],
					"hidden" : 0,
					"midpoints" : [  ]
				}

			}
, 			{
				"patchline" : 				{
					"source" : [ "obj-51", 0 ],
					"destination" : [ "obj-47", 0 ],
					"hidden" : 0,
					"midpoints" : [  ]
				}

			}
, 			{
				"patchline" : 				{
					"source" : [ "obj-50", 0 ],
					"destination" : [ "obj-51", 0 ],
					"hidden" : 0,
					"midpoints" : [  ]
				}

			}
, 			{
				"patchline" : 				{
					"source" : [ "obj-45", 0 ],
					"destination" : [ "obj-51", 1 ],
					"hidden" : 0,
					"midpoints" : [  ]
				}

			}
, 			{
				"patchline" : 				{
					"source" : [ "obj-50", 1 ],
					"destination" : [ "obj-46", 1 ],
					"hidden" : 0,
					"midpoints" : [  ]
				}

			}
, 			{
				"patchline" : 				{
					"source" : [ "obj-44", 0 ],
					"destination" : [ "obj-50", 0 ],
					"hidden" : 0,
					"midpoints" : [  ]
				}

			}
, 			{
				"patchline" : 				{
					"source" : [ "obj-47", 0 ],
					"destination" : [ "obj-23", 0 ],
					"hidden" : 0,
					"midpoints" : [ 546.5, 579.0, 524.0, 579.0, 524.0, 387.0, 546.5, 387.0 ]
				}

			}
, 			{
				"patchline" : 				{
					"source" : [ "obj-46", 0 ],
					"destination" : [ "obj-33", 0 ],
					"hidden" : 0,
					"midpoints" : [  ]
				}

			}
, 			{
				"patchline" : 				{
					"source" : [ "obj-45", 0 ],
					"destination" : [ "obj-46", 0 ],
					"hidden" : 0,
					"midpoints" : [  ]
				}

			}
, 			{
				"patchline" : 				{
					"source" : [ "obj-43", 0 ],
					"destination" : [ "obj-45", 1 ],
					"hidden" : 0,
					"midpoints" : [  ]
				}

			}
, 			{
				"patchline" : 				{
					"source" : [ "obj-44", 1 ],
					"destination" : [ "obj-45", 0 ],
					"hidden" : 0,
					"midpoints" : [  ]
				}

			}
, 			{
				"patchline" : 				{
					"source" : [ "obj-44", 2 ],
					"destination" : [ "obj-43", 0 ],
					"hidden" : 0,
					"midpoints" : [ 616.5, 471.0, 595.5, 471.0 ]
				}

			}
, 			{
				"patchline" : 				{
					"source" : [ "obj-34", 0 ],
					"destination" : [ "obj-20", 0 ],
					"hidden" : 0,
					"midpoints" : [ 386.5, 538.0, 330.0, 538.0, 330.0, 388.0, 423.5, 388.0 ]
				}

			}
, 			{
				"patchline" : 				{
					"source" : [ "obj-34", 0 ],
					"destination" : [ "obj-23", 0 ],
					"hidden" : 0,
					"midpoints" : [  ]
				}

			}
, 			{
				"patchline" : 				{
					"source" : [ "obj-36", 0 ],
					"destination" : [ "obj-34", 0 ],
					"hidden" : 0,
					"midpoints" : [  ]
				}

			}
, 			{
				"patchline" : 				{
					"source" : [ "obj-20", 0 ],
					"destination" : [ "obj-31", 0 ],
					"hidden" : 0,
					"midpoints" : [  ]
				}

			}
, 			{
				"patchline" : 				{
					"source" : [ "obj-29", 0 ],
					"destination" : [ "obj-23", 0 ],
					"hidden" : 0,
					"midpoints" : [  ]
				}

			}
, 			{
				"patchline" : 				{
					"source" : [ "obj-29", 0 ],
					"destination" : [ "obj-20", 0 ],
					"hidden" : 0,
					"midpoints" : [  ]
				}

			}
, 			{
				"patchline" : 				{
					"source" : [ "obj-1", 0 ],
					"destination" : [ "obj-2", 0 ],
					"hidden" : 0,
					"midpoints" : [  ]
				}

			}
, 			{
				"patchline" : 				{
					"source" : [ "obj-2", 0 ],
					"destination" : [ "obj-3", 1 ],
					"hidden" : 0,
					"midpoints" : [  ]
				}

			}
, 			{
				"patchline" : 				{
					"source" : [ "obj-4", 0 ],
					"destination" : [ "obj-3", 0 ],
					"hidden" : 0,
					"midpoints" : [  ]
				}

			}
, 			{
				"patchline" : 				{
					"source" : [ "obj-4", 1 ],
					"destination" : [ "obj-1", 0 ],
					"hidden" : 0,
					"midpoints" : [  ]
				}

			}
, 			{
				"patchline" : 				{
					"source" : [ "obj-23", 0 ],
					"destination" : [ "obj-11", 0 ],
					"hidden" : 0,
					"midpoints" : [  ]
				}

			}
, 			{
				"patchline" : 				{
					"source" : [ "obj-11", 0 ],
					"destination" : [ "obj-44", 0 ],
					"hidden" : 0,
					"midpoints" : [  ]
				}

			}
, 			{
				"patchline" : 				{
					"source" : [ "obj-21", 0 ],
					"destination" : [ "obj-1", 0 ],
					"hidden" : 0,
					"midpoints" : [ 561.5, 244.0, 536.5, 244.0 ]
				}

			}
, 			{
				"patchline" : 				{
					"source" : [ "obj-3", 0 ],
					"destination" : [ "obj-24", 0 ],
					"hidden" : 0,
					"midpoints" : [ 522.5, 327.0, 546.5, 327.0 ]
				}

			}
, 			{
				"patchline" : 				{
					"source" : [ "obj-24", 0 ],
					"destination" : [ "obj-23", 0 ],
					"hidden" : 0,
					"midpoints" : [  ]
				}

			}
, 			{
				"patchline" : 				{
					"source" : [ "obj-29", 0 ],
					"destination" : [ "obj-24", 0 ],
					"hidden" : 0,
					"midpoints" : [  ]
				}

			}
, 			{
				"patchline" : 				{
					"source" : [ "obj-26", 0 ],
					"destination" : [ "obj-19", 0 ],
					"hidden" : 0,
					"midpoints" : [  ]
				}

			}
, 			{
				"patchline" : 				{
					"source" : [ "obj-19", 0 ],
					"destination" : [ "obj-20", 0 ],
					"hidden" : 0,
					"midpoints" : [  ]
				}

			}
, 			{
				"patchline" : 				{
					"source" : [ "obj-29", 0 ],
					"destination" : [ "obj-19", 0 ],
					"hidden" : 0,
					"midpoints" : [  ]
				}

			}
, 			{
				"patchline" : 				{
					"source" : [ "obj-31", 0 ],
					"destination" : [ "obj-40", 0 ],
					"hidden" : 0,
					"midpoints" : [  ]
				}

			}
, 			{
				"patchline" : 				{
					"source" : [ "obj-33", 0 ],
					"destination" : [ "obj-39", 0 ],
					"hidden" : 0,
					"midpoints" : [ 581.5, 579.0, 632.0, 579.0, 632.0, 477.0, 655.5, 477.0 ]
				}

			}
, 			{
				"patchline" : 				{
					"source" : [ "obj-39", 0 ],
					"destination" : [ "obj-32", 0 ],
					"hidden" : 0,
					"midpoints" : [  ]
				}

			}
, 			{
				"patchline" : 				{
					"source" : [ "obj-35", 0 ],
					"destination" : [ "obj-37", 2 ],
					"hidden" : 0,
					"midpoints" : [  ]
				}

			}
, 			{
				"patchline" : 				{
					"source" : [ "obj-33", 0 ],
					"destination" : [ "obj-37", 0 ],
					"hidden" : 0,
					"midpoints" : [  ]
				}

			}
, 			{
				"patchline" : 				{
					"source" : [ "obj-37", 1 ],
					"destination" : [ "obj-64", 1 ],
					"hidden" : 0,
					"midpoints" : [  ]
				}

			}
, 			{
				"patchline" : 				{
					"source" : [ "obj-37", 0 ],
					"destination" : [ "obj-64", 0 ],
					"hidden" : 0,
					"midpoints" : [  ]
				}

			}
, 			{
				"patchline" : 				{
					"source" : [ "obj-23", 1 ],
					"destination" : [ "obj-61", 0 ],
					"hidden" : 0,
					"midpoints" : [  ]
				}

			}
 ]
	}

}
